<svg width="37" height="37" viewBox="0 0 37 37" fill="none" xmlns="http://www.w3.org/2000/svg">
<path d="M36.8781 10.9834C36.8575 9.43496 36.5676 7.90192 36.0215 6.45285C35.5479 5.23057 34.8245 4.12051 33.8976 3.19362C32.9707 2.26672 31.8607 1.54336 30.6384 1.06976C29.208 0.532791 27.6968 0.242444 26.1692 0.211079C24.2024 0.123167 23.5788 0.0986328 18.5862 0.0986328C13.5936 0.0986328 12.9537 0.0986329 11.0013 0.211079C9.47436 0.242674 7.96388 0.533018 6.53408 1.06976C5.31161 1.54303 4.20138 2.26627 3.27445 3.19321C2.34751 4.12015 1.62426 5.23037 1.15099 6.45285C0.612949 7.8822 0.323232 9.39302 0.294357 10.92C0.206445 12.8888 0.179867 13.5124 0.179867 18.505C0.179867 23.4976 0.179867 24.1355 0.294357 26.09C0.325024 27.6193 0.613294 29.1281 1.15099 30.5612C1.62506 31.7834 2.34884 32.8931 3.27609 33.8197C4.20334 34.7462 5.31366 35.4692 6.53613 35.9423C7.96201 36.5008 9.47275 36.812 11.0033 36.8623C12.9721 36.9502 13.5957 36.9768 18.5883 36.9768C23.5809 36.9768 24.2208 36.9768 26.1733 36.8623C27.7008 36.8322 29.2121 36.5426 30.6425 36.0057C31.8644 35.5315 32.9742 34.808 33.901 33.8811C34.8279 32.9543 35.5514 31.8445 36.0256 30.6226C36.5633 29.1915 36.8515 27.6826 36.8822 26.1513C36.9701 24.1845 36.9967 23.561 36.9967 18.5663C36.9926 13.5737 36.9926 12.94 36.8781 10.9834ZM18.574 27.9464C13.3524 27.9464 9.12238 23.7164 9.12238 18.4948C9.12238 13.2732 13.3524 9.04319 18.574 9.04319C21.0807 9.04319 23.4847 10.039 25.2573 11.8115C27.0298 13.584 28.0256 15.9881 28.0256 18.4948C28.0256 21.0015 27.0298 23.4055 25.2573 25.1781C23.4847 26.9506 21.0807 27.9464 18.574 27.9464ZM28.4017 10.8975C28.1122 10.8978 27.8255 10.841 27.558 10.7303C27.2905 10.6196 27.0474 10.4573 26.8427 10.2526C26.638 10.0479 26.4757 9.80483 26.365 9.53732C26.2544 9.2698 26.1975 8.98309 26.1978 8.69359C26.1978 8.4043 26.2548 8.11784 26.3655 7.85057C26.4762 7.5833 26.6385 7.34045 26.843 7.13589C27.0476 6.93133 27.2904 6.76906 27.5577 6.65836C27.825 6.54765 28.1114 6.49067 28.4007 6.49067C28.69 6.49067 28.9765 6.54765 29.2437 6.65836C29.511 6.76906 29.7539 6.93133 29.9584 7.13589C30.163 7.34045 30.3252 7.5833 30.436 7.85057C30.5467 8.11784 30.6036 8.4043 30.6036 8.69359C30.6036 9.91209 29.6182 10.8975 28.4017 10.8975Z" fill="#D9D9D9"/>
</svg>
