<svg xmlns="http://www.w3.org/2000/svg" width="544" height="497" fill="none" viewBox="0 0 544 497">
  <path fill="#fff" d="M305 497H0V318h305v179Z"/>
  <path fill="#DA291C" d="M205.757 497H76.385l-.106-.07 25.556-17.966-25.676-17.567 26.353-18.529-26.193-17.919 25.914-18.224L76 388.783l25.927-18.224L76 352.828l25.635-18.013L77.062 318h128.695v.728H543v177.873L205.757 497Z"/>
  <path fill="#000" d="M251.887 177.974h59.127v4.551h-59.127v-4.551Zm3.63-47.316h58.219v3.643h-58.219v-3.643Zm-1.815 96.447h58.219v4.551h-58.219v-4.551Z"/>
  <path fill="#ECECEC" d="M312.375 2.82s90.058 300.245 75.5 308.44h-84.564l9.064-308.44Z"/>
  <path fill="#fff" d="M302.845 311.713h85.149l.108-.059c2.269-1.278 4.18-8.075-5.434-52.142-5.661-25.933-14.618-61.482-26.644-105.668C335.555 78.636 313.032 3.44 312.805 2.688L311.993 0l-9.148 311.713Zm84.898-.907h-83.967l8.969-305.144c4.216 14.131 24.124 81.264 42.396 148.433 15.358 56.465 39.947 151.67 32.602 156.711Z"/>
  <path fill="#fff" d="M313.366 311.26h74.509s-1.767-8.9-4.717-23.198c-.442-2.162-.92-4.432-1.421-6.821a3784.309 3784.309 0 0 0-3.643-17.285c-.442-2.078-.896-4.205-1.349-6.367-1.314-6.08-2.687-12.483-4.144-19.112-.454-2.103-.932-4.217-1.398-6.367a2896.705 2896.705 0 0 0-4.275-19.113c-.478-2.114-.967-4.24-1.457-6.367a3160.36 3160.36 0 0 0-3.965-17.058 702.37 702.37 0 0 0-1.134-4.778 2294.194 2294.194 0 0 0-3.738-15.469 833.977 833.977 0 0 0-1.589-6.367 1452.045 1452.045 0 0 0-4.908-19.112 478.907 478.907 0 0 0-1.708-6.367c-7.918-29.147-15.394-51.4-20.577-55.498 0 0-2.281 23.52-5.135 55.498-.179 2.078-.37 4.217-.561 6.367-.538 6.14-1.087 12.542-1.66 19.112-.179 2.115-.358 4.229-.549 6.367-.43 5.101-.86 10.261-1.278 15.469-.168 2.115-.347 4.241-.514 6.367-.418 5.161-.824 10.333-1.218 15.469-.167 2.127-.322 4.253-.478 6.367-.489 6.475-.967 12.865-1.397 19.113-.143 2.15-.287 4.264-.442 6.367a1995.32 1995.32 0 0 0-1.206 19.112c-.131 2.162-.251 4.3-.358 6.367a994.36 994.36 0 0 0-.8 17.285 888.612 888.612 0 0 0-.215 6.821c-.359 13.343-.024 22.015 1.325 23.198Z"/>
  <path fill="#F5F0EA" d="M313.187 311.713h75.237l-.107-.549c-.012-.084-1.803-9.067-4.717-23.21-.442-2.15-.92-4.432-1.422-6.821a3647.015 3647.015 0 0 0-5.003-23.651c-1.314-6.081-2.687-12.483-4.144-19.113-.323-1.469-.645-2.938-.968-4.432l-.43-1.935a2896.593 2896.593 0 0 0-4.275-19.112l-.454-2.007c-.334-1.446-.657-2.903-1.003-4.36a3450.126 3450.126 0 0 0-3.965-17.058 631.329 631.329 0 0 0-1.087-4.575l-.048-.203a1695.653 1695.653 0 0 0-3.737-15.469 696.745 696.745 0 0 0-1.589-6.367c-1.6-6.415-3.248-12.842-4.908-19.113a541.342 541.342 0 0 0-1.708-6.379c-9.04-33.255-16.015-52.01-20.732-55.737l-.657-.513-.083.824c-.024.239-2.317 23.891-5.136 55.51l-.561 6.367c-.537 6.14-1.087 12.542-1.66 19.112l-.693 8.171c-.382 4.515-.764 9.078-1.134 13.665l-.514 6.367c-.382 4.707-.752 9.425-1.11 14.12l-.167 2.102a814.86 814.86 0 0 0-.418 5.614c-.49 6.475-.968 12.865-1.398 19.113-.143 2.15-.286 4.264-.442 6.367-.477 7.095-.871 13.355-1.206 19.112-.083 1.517-.179 3.011-.251 4.48l-.107 1.887c-.346 6.439-.621 12.256-.8 17.297a945.134 945.134 0 0 0-.215 6.833c-.49 19.494.621 22.779 1.505 23.556l.107.107Zm74.127-.907h-73.757c-.645-.872-1.528-5.125-1.086-22.732.059-2.151.131-4.432.203-6.821.179-5.041.453-10.858.8-17.273l.107-1.887c.084-1.47.167-2.963.251-4.48a2049.773 2049.773 0 0 1 1.648-25.467c.442-6.236.908-12.639 1.397-19.101.132-1.875.275-3.739.418-5.614l.167-2.103c.371-4.694.729-9.413 1.111-14.119l.514-6.367c.37-4.587.752-9.15 1.134-13.665l.693-8.171c.561-6.57 1.122-12.961 1.66-19.101l.561-6.366c2.508-28.132 4.598-49.956 5.04-54.59 4.55 4.754 11.202 23.126 19.776 54.673a467.973 467.973 0 0 1 1.708 6.367 1440.54 1440.54 0 0 1 4.909 19.101c.525 2.114 1.05 4.228 1.588 6.366 1.194 4.826 2.412 9.891 3.738 15.458l.048.203c.37 1.517.728 3.046 1.086 4.563a3340.325 3340.325 0 0 1 3.965 17.058c.335 1.457.669 2.915 1.003 4.36l.454 2.007a2961.67 2961.67 0 0 1 4.276 19.1l.43 1.935c.334 1.494.656 2.963.967 4.432 1.457 6.63 2.842 13.033 4.144 19.113.466 2.162.919 4.288 1.349 6.367 1.314 6.211 2.544 12.017 3.643 17.284.501 2.39.967 4.671 1.421 6.821 2.544 12.161 4.204 20.51 4.634 22.649Z"/>
  <path fill="#B3B3B3" d="M322.144 143.846h27.981a478.907 478.907 0 0 0-1.708-6.367h-25.7c-.191 2.09-.382 4.217-.573 6.367Zm-2.198 25.479h36.676a833.977 833.977 0 0 0-1.589-6.367h-34.549l-.538 6.367Zm-1.803 21.836h43.351v-1.589a702.37 702.37 0 0 0-1.134-4.778h-41.703c-.168 2.115-.347 4.241-.514 6.367Zm-1.218 15.469h48.534c.49 2.127.967 4.253 1.457 6.367h-50.481l.49-6.367Zm-1.887 25.48h56.153c.478 2.15.944 4.264 1.397 6.367h-57.992l.442-6.367Zm-2.006 31.834h65.062c-.442-2.078-.895-4.205-1.349-6.367h-63.343c-.143 2.174-.251 4.301-.37 6.367Zm-1.015 24.118h71.129c-.442-2.162-.92-4.432-1.421-6.821H312.22c-.072 2.389-.143 4.659-.203 6.821Z"/>
  <path fill="#ECECEC" d="M381.151 311.26s-28.041-163.747-34.765-164.667c0 0-36.531 141.923-19.812 164.667h54.577Z"/>
  <path fill="#ECECEC" d="M326.347 311.713h55.341l-.095-.525c-.072-.406-7.106-41.415-14.868-81.993-15.764-82.423-19.049-82.877-20.291-83.044l-.406-.06-.095.395c-.096.358-9.22 35.931-16.182 73.834-9.375 50.982-10.569 81.682-3.559 91.214l.155.179Zm54.267-.907h-53.801c-15.537-22.147 17.352-153.57 19.872-163.52 1.589 1.78 6.234 14.442 19.192 82.184 7.261 38.034 13.889 76.402 14.737 81.336Z"/>
  <path fill="#828FA3" d="M340.559 173.876h13.65v.908h-13.65v-.908Z"/>
  <path fill="#fff" d="M339.663 172.968h15.466v2.736h-15.466v-2.736Zm-2.735 14.55h20.924v1.816h-20.924v-1.816Z"/>
  <path fill="#828FA3" d="M334.659 202.079h25.473v.454h-25.473v-.454Z"/>
  <path fill="#fff" d="M333.752 201.171h27.288v2.27h-27.288v-2.27Z"/>
  <path fill="#828FA3" d="M331.925 215.733h30.93v1.361h-30.93v-1.361Z"/>
  <path fill="#fff" d="M331.017 214.813h32.746v3.189h-32.746v-3.189Zm-2.269 16.377h37.296v1.816h-37.296v-1.816Zm-1.827 16.377h41.846v.908h-41.846v-.908Z"/>
  <path fill="#fff" d="M326.013 246.659h43.662v2.736h-43.662v-2.736Zm-1.815 18.659h47.758v.908h-47.758v-.908Z"/>
  <path fill="#fff" d="M323.29 264.41h49.573v2.735H323.29v-2.735Zm-.466 15.003h51.854v.908h-51.854v-.908Z"/>
  <path fill="#fff" d="M321.917 278.505h53.669v2.736h-53.669v-2.736Zm1.827 16.831h53.669v-.907l-54.577-.454.908 1.361Z"/>
  <path fill="#fff" d="M323.254 296.244h55.067v-2.723l-57.192-.466 2.125 3.189Z"/>
  <path fill="#ECECEC" d="M257.608 2.82s-90.058 300.245-75.5 308.44h84.564L257.608 2.82Z"/>
  <path fill="#fff" d="M181.988 311.713h85.149l-.012-.465L257.977 0l-.812 2.688c-.227.752-22.75 75.936-43.207 151.156-12.014 44.186-20.983 79.735-26.644 105.668-9.614 44.067-7.703 50.864-5.434 52.142l.108.059Zm84.206-.907h-83.967c-7.345-5.041 17.244-100.246 32.602-156.711 18.272-67.169 38.18-134.314 42.396-148.433l8.969 305.144Z"/>
  <path fill="#fff" d="M256.616 311.26h-74.509s1.768-8.9 4.717-23.198c.442-2.162.92-4.432 1.422-6.821a3647.015 3647.015 0 0 1 3.642-17.285c.442-2.078.896-4.205 1.349-6.367 1.314-6.08 2.687-12.483 4.144-19.112.454-2.103.932-4.217 1.398-6.367a2896.705 2896.705 0 0 1 4.275-19.113c.478-2.114.967-4.24 1.457-6.367a3160.36 3160.36 0 0 1 3.965-17.058c.37-1.588.752-3.189 1.135-4.778a2356.779 2356.779 0 0 1 3.737-15.469 833.977 833.977 0 0 1 1.589-6.367c1.636-6.558 3.284-12.96 4.908-19.112a478.907 478.907 0 0 1 1.708-6.367c7.918-29.147 15.394-51.4 20.577-55.498 0 0 2.281 23.52 5.135 55.498.179 2.078.37 4.217.561 6.367.538 6.14 1.087 12.542 1.66 19.112.179 2.115.359 4.229.55 6.367.43 5.101.859 10.261 1.277 15.469.168 2.115.347 4.241.514 6.367.418 5.161.824 10.333 1.218 15.469.167 2.127.323 4.253.478 6.367.489 6.475.967 12.865 1.397 19.113.143 2.15.287 4.264.442 6.367.442 6.629.86 13.032 1.206 19.112.131 2.162.251 4.3.358 6.367.335 6.212.609 12.017.801 17.285.083 2.389.155 4.671.214 6.821.359 13.343.012 22.015-1.325 23.198Z"/>
  <path fill="#F5F0EA" d="M181.546 311.713h75.237l.131-.107c.884-.777 1.995-4.062 1.505-23.556-.06-2.162-.131-4.432-.215-6.833-.179-5.041-.454-10.87-.8-17.297l-.107-1.971c-.084-1.445-.168-2.914-.251-4.396-.335-5.698-.729-11.945-1.206-19.112-.144-2.103-.287-4.217-.442-6.367A3909.3 3909.3 0 0 0 254 212.961c-.155-2.114-.322-4.24-.477-6.366l-.084-1.028c-.37-4.802-.752-9.628-1.134-14.442l-.514-6.367c-.358-4.443-.728-8.851-1.099-13.223l-.74-8.613c-.561-6.57-1.123-12.96-1.66-19.112l-.561-6.367a7872.553 7872.553 0 0 0-5.136-55.51l-.083-.824-.657.513c-4.717 3.727-11.692 22.482-20.732 55.737a485.245 485.245 0 0 0-1.708 6.379 1264.63 1264.63 0 0 0-4.908 19.113c-.526 2.114-1.051 4.228-1.589 6.367a1821.673 1821.673 0 0 0-3.737 15.469 624.202 624.202 0 0 0-1.135 4.778 3450.126 3450.126 0 0 0-3.965 17.058 551.202 551.202 0 0 0-.979 4.288l-.478 2.091a2896.593 2896.593 0 0 0-4.275 19.112l-.394 1.768a402.98 402.98 0 0 0-1.004 4.599 3380.77 3380.77 0 0 0-4.144 19.113c-.465 2.162-.919 4.3-1.361 6.366-1.314 6.212-2.544 12.017-3.642 17.285-.502 2.389-.968 4.671-1.422 6.821-2.925 14.143-4.705 23.114-4.717 23.21l-.119.537Zm74.867-.907h-73.757c.43-2.139 2.102-10.488 4.61-22.649.442-2.15.92-4.431 1.421-6.821a3785.452 3785.452 0 0 1 5.004-23.651c1.314-6.08 2.687-12.483 4.144-19.101.335-1.517.669-3.058 1.003-4.599l.394-1.768a2961.67 2961.67 0 0 1 4.276-19.1l.478-2.091c.322-1.421.644-2.855.979-4.276a3450.126 3450.126 0 0 1 3.965-17.058c.37-1.589.752-3.178 1.134-4.778a1849.222 1849.222 0 0 1 3.738-15.469 811.153 811.153 0 0 1 1.589-6.367c1.6-6.427 3.26-12.854 4.908-19.101a520.24 520.24 0 0 1 1.708-6.367c8.574-31.535 15.214-49.907 19.776-54.674.442 4.623 2.544 26.459 5.04 54.591l.561 6.366c.538 6.14 1.087 12.531 1.66 19.101l.741 8.613c.37 4.36.74 8.779 1.098 13.223l.514 6.367c.394 4.814.764 9.64 1.135 14.442l.083 1.027c.167 2.126.323 4.253.478 6.367.489 6.474.967 12.865 1.397 19.101.143 2.15.287 4.264.442 6.366.478 7.156.872 13.403 1.206 19.101.084 1.481.167 2.951.251 4.396l.107 1.971c.347 6.427.621 12.244.801 17.273.083 2.389.155 4.659.215 6.821.441 17.619-.454 21.872-1.099 22.744Z"/>
  <path fill="#B3B3B3" d="M247.838 143.846h-27.981a464.088 464.088 0 0 1 1.708-6.367h25.7c.191 2.09.382 4.217.573 6.367Zm2.198 25.479H213.36a833.977 833.977 0 0 1 1.589-6.367h34.549c.167 2.115.359 4.229.538 6.367Zm1.803 21.836h-43.351v-1.589c.37-1.588.752-3.189 1.134-4.778h41.703c.168 2.115.335 4.241.514 6.367Zm1.696 21.836h-50.481c.478-2.114.967-4.24 1.457-6.367h48.534l.49 6.367Zm1.839 25.48h-57.992c.453-2.103.931-4.217 1.397-6.367h56.153l.442 6.367Zm1.576 25.467h-65.063c.442-2.078.896-4.205 1.35-6.367h63.342c.132 2.174.251 4.301.371 6.367Zm1.003 24.118h-71.129c.442-2.162.92-4.432 1.421-6.821h69.505c.084 2.389.155 4.659.203 6.821Z"/>
  <path fill="#ECECEC" d="M188.818 311.259s28.041-163.746 34.765-164.666c0 0 36.531 141.923 19.812 164.666h-54.577Z"/>
  <path fill="#fff" d="M188.281 311.713h55.341l.131-.191c7.011-9.532 5.816-40.232-3.558-91.214-6.963-37.903-16.087-73.476-16.182-73.834l-.096-.395-.406.06c-1.242.167-4.526.621-20.29 83.044-7.763 40.59-14.797 81.587-14.869 81.993l-.071.537Zm54.887-.907h-53.8c.847-4.946 7.476-43.302 14.748-81.336 12.946-67.73 17.592-80.392 19.18-82.184 2.52 9.962 35.409 141.385 19.872 163.52Z"/>
  <path fill="#828FA3" d="M229.415 174.783h-13.65v-.908h13.65v.908Z"/>
  <path fill="#fff" d="M214.853 172.968h15.465v2.736h-15.465v-2.736Zm-2.734 14.55h20.923v1.816h-20.923v-1.816Z"/>
  <path fill="#828FA3" d="M235.315 202.536h-25.473v-.454h25.473v.454Z"/>
  <path fill="#fff" d="M208.942 201.171h27.288v2.27h-27.288v-2.27Z"/>
  <path fill="#828FA3" d="M238.05 217.088h-30.931v-1.362h30.931v1.362Z"/>
  <path fill="#fff" d="M206.207 214.813h32.746v3.189h-32.746v-3.189Zm-2.269 16.377h37.296v1.816h-37.296v-1.816Zm39.113 17.298h-41.846v-.908h41.846v.908Z"/>
  <path fill="#fff" d="M200.295 246.659h43.662v2.736h-43.662v-2.736Zm45.491 19.562h-47.758v-.908h47.758v.908Z"/>
  <path fill="#fff" d="M197.118 264.41h49.573v2.735h-49.573v-2.735Zm50.026 15.921H195.29v-.908h51.854v.908Z"/>
  <path fill="#fff" d="M194.383 278.505h53.67v2.736h-53.67v-2.736Zm51.855 16.831h-53.669v-.907l54.577-.454-.908 1.361Z"/>
  <path fill="#fff" d="M191.649 296.244h55.067l2.138-3.189-57.205.466v2.723Z"/>
  <path fill="#B3B3B3" d="M278.685 180.1a63.91 63.91 0 0 1 5.04-.753v-.024a1.36 1.36 0 0 1 1.362-1.361c.155 0 .298.035.441.083.49-1.194 1.266-2.879 2.222-4.718 1.779-3.44 3.451-6.116 3.738-5.961.286.143-.92 3.058-2.699 6.498-.98 1.9-1.923 3.548-2.628 4.635a1.34 1.34 0 0 1-.334 1.983c.681 1.099 1.636 2.903 2.615 4.993 1.648 3.5 2.759 6.463 2.46 6.594-.286.143-1.863-2.592-3.523-6.092-1.015-2.138-1.815-4.073-2.221-5.28-.024 0-.048.012-.071.012-.466 0-.872-.227-1.111-.585-1.242.346-3.045.764-5.064 1.134-3.809.705-6.95 1.028-7.01.705-.072-.322 2.974-1.147 6.783-1.863Zm3.798-49.693c1.815.848 3.427 1.673 4.538 2.306 0 0 0-.012.012-.012a1.373 1.373 0 0 1 1.899-.323c.119.084.227.203.31.311 1.087-.693 2.711-1.613 4.551-2.557 3.451-1.767 6.353-2.974 6.508-2.687.143.286-2.52 1.959-5.971 3.727-1.899.979-3.631 1.78-4.825 2.257.012.299-.06.598-.251.848a1.362 1.362 0 0 1-1.182.574c-.084 1.278-.358 3.309-.764 5.59-.681 3.811-1.493 6.857-1.815 6.809-.323-.06-.024-3.201.668-7.012.418-2.329.884-4.372 1.254-5.59a.233.233 0 0 1-.059-.036 1.35 1.35 0 0 1-.574-1.123c-1.218-.43-2.926-1.147-4.789-2.007-3.511-1.636-6.257-3.189-6.114-3.488.131-.298 3.081.789 6.604 2.413Zm-6.091 95.109c1.648 1.135 3.105 2.21 4.085 3.034l.012-.012a1.362 1.362 0 0 1 1.934 0c.108.108.191.239.251.358 1.182-.501 2.938-1.134 4.908-1.767 3.691-1.171 6.772-1.876 6.867-1.565.096.31-2.818 1.505-6.508 2.687-2.03.645-3.87 1.147-5.135 1.422a1.36 1.36 0 0 1-.383.8 1.333 1.333 0 0 1-1.266.359c-.298 1.254-.895 3.201-1.683 5.375-1.314 3.643-2.616 6.51-2.926 6.403-.299-.108.513-3.154 1.827-6.797.8-2.222 1.6-4.157 2.173-5.304-.012-.012-.035-.024-.059-.048a1.38 1.38 0 0 1-.382-1.206c-1.123-.633-2.688-1.613-4.383-2.783-3.189-2.198-5.637-4.193-5.446-4.456.179-.263 2.914 1.302 6.114 3.5Z"/>
  <path fill="#ECECEC" d="M216.944 314.551h-21.126v-89.375h21.126v89.375Z"/>
  <path fill="#fff" d="M206.184 243.814h-6.425v-12.376h6.425v12.376Z"/>
  <path fill="#E1E1E1" d="M203.15 243.816c-.047 0-.083-2.771-.083-6.187 0-3.417.036-6.188.083-6.188.048 0 .084 2.771.084 6.188 0 3.416-.036 6.187-.084 6.187Z"/>
  <path fill="#E1E1E1" d="M206.172 235.741c0 .048-1.433.084-3.213.084-1.779 0-3.212-.036-3.212-.084 0-.048 1.433-.083 3.212-.083 1.78 0 3.213.035 3.213.083Zm.036 4.42c0 .048-1.445.084-3.237.084-1.791 0-3.236-.036-3.236-.084 0-.048 1.445-.084 3.236-.084 1.792 0 3.237.036 3.237.084Z"/>
  <path fill="#fff" d="M206.184 259.989h-6.425v-12.376h6.425v12.376Z"/>
  <path fill="#E1E1E1" d="M203.15 259.99c-.047 0-.083-2.771-.083-6.188 0-3.416.036-6.187.083-6.187.048 0 .084 2.771.084 6.187 0 3.417-.036 6.188-.084 6.188Z"/>
  <path fill="#E1E1E1" d="M206.172 251.903c0 .048-1.433.084-3.213.084-1.779 0-3.212-.036-3.212-.084 0-.048 1.433-.083 3.212-.083 1.78 0 3.213.035 3.213.083Zm.036 4.432c0 .048-1.445.084-3.237.084-1.791 0-3.236-.036-3.236-.084 0-.048 1.445-.084 3.236-.084 1.792 0 3.237.036 3.237.084Z"/>
  <path fill="#fff" d="M206.184 276.152h-6.425v-12.375h6.425v12.375Z"/>
  <path fill="#E1E1E1" d="M203.15 276.152c-.047 0-.083-2.771-.083-6.187 0-3.417.036-6.188.083-6.188.048 0 .084 2.771.084 6.188 0 3.416-.036 6.187-.084 6.187Z"/>
  <path fill="#E1E1E1" d="M206.172 268.077c0 .048-1.433.084-3.213.084-1.779 0-3.212-.036-3.212-.084 0-.048 1.433-.083 3.212-.083 1.78 0 3.213.035 3.213.083Zm.036 4.42c0 .048-1.445.084-3.237.084-1.791 0-3.236-.036-3.236-.084 0-.048 1.445-.084 3.236-.084 1.792 0 3.237.048 3.237.084Z"/>
  <path fill="#fff" d="M206.184 292.327h-6.425v-12.375h6.425v12.375Z"/>
  <path fill="#E1E1E1" d="M203.15 292.326c-.047 0-.083-2.771-.083-6.188 0-3.416.036-6.187.083-6.187.048 0 .084 2.771.084 6.187 0 3.417-.036 6.188-.084 6.188Z"/>
  <path fill="#E1E1E1" d="M206.172 284.239c0 .048-1.433.084-3.213.084-1.779 0-3.212-.036-3.212-.084 0-.048 1.433-.083 3.212-.083 1.78 0 3.213.035 3.213.083Zm.036 4.432c0 .048-1.445.084-3.237.084-1.791 0-3.236-.036-3.236-.084 0-.048 1.445-.084 3.236-.084 1.792 0 3.237.036 3.237.084Zm19.717 25.88h-15.394v-89.375h15.394v89.375Z"/>
  <path fill="#fff" d="M221.736 243.814h-6.425v-12.376h6.425v12.376Z"/>
  <path fill="#E1E1E1" d="M218.711 243.816c-.048 0-.084-2.771-.084-6.187 0-3.417.036-6.188.084-6.188.048 0 .083 2.771.083 6.188 0 3.416-.035 6.187-.083 6.187Z"/>
  <path fill="#E1E1E1" d="M221.745 235.741c0 .048-1.433.084-3.213.084-1.779 0-3.212-.036-3.212-.084 0-.048 1.433-.083 3.212-.083 1.768 0 3.213.035 3.213.083Zm.023 4.42c0 .048-1.445.084-3.236.084-1.792 0-3.237-.036-3.237-.084 0-.048 1.445-.084 3.237-.084 1.791 0 3.236.036 3.236.084Z"/>
  <path fill="#fff" d="M221.736 260.123h-6.425v-12.376h6.425v12.376Z"/>
  <path fill="#E1E1E1" d="M218.711 260.122c-.048 0-.084-2.772-.084-6.188s.036-6.188.084-6.188c.048 0 .083 2.772.083 6.188s-.035 6.188-.083 6.188Z"/>
  <path fill="#E1E1E1" d="M221.745 252.035c0 .047-1.433.083-3.213.083-1.779 0-3.212-.036-3.212-.083 0-.048 1.433-.084 3.212-.084 1.768 0 3.213.036 3.213.084Zm.023 4.431c0 .048-1.445.084-3.236.084-1.792 0-3.237-.036-3.237-.084 0-.047 1.445-.083 3.237-.083 1.791 0 3.236.036 3.236.083Z"/>
  <path fill="#fff" d="M221.736 276.42h-6.425v-12.376h6.425v12.376Z"/>
  <path fill="#E1E1E1" d="M218.711 276.415c-.048 0-.084-2.771-.084-6.188 0-3.416.036-6.187.084-6.187.048 0 .083 2.771.083 6.187 0 3.417-.035 6.188-.083 6.188Z"/>
  <path fill="#E1E1E1" d="M221.745 268.34c0 .048-1.433.084-3.213.084-1.779 0-3.212-.036-3.212-.084 0-.048 1.433-.084 3.212-.084 1.768 0 3.213.036 3.213.084Zm.023 4.432c0 .047-1.445.083-3.236.083-1.792 0-3.237-.036-3.237-.083 0-.048 1.445-.084 3.237-.084 1.791-.012 3.236.036 3.236.084Z"/>
  <path fill="#fff" d="M221.736 292.717h-6.425v-12.376h6.425v12.376Z"/>
  <path fill="#E1E1E1" d="M218.711 292.72c-.048 0-.084-2.771-.084-6.187 0-3.417.036-6.188.084-6.188.048 0 .083 2.771.083 6.188 0 3.416-.035 6.187-.083 6.187Z"/>
  <path fill="#E1E1E1" d="M221.745 284.645c0 .048-1.433.084-3.213.084-1.779 0-3.212-.036-3.212-.084 0-.047 1.433-.083 3.212-.083 1.768 0 3.213.036 3.213.083Zm.023 4.42c0 .048-1.445.084-3.236.084-1.792 0-3.237-.036-3.237-.084 0-.048 1.445-.084 3.237-.084 1.791 0 3.236.036 3.236.084Z"/>
  <path fill="#fff" d="M206.184 308.49h-6.425v-12.375h6.425v12.375Z"/>
  <path fill="#E1E1E1" d="M203.15 308.488c-.047 0-.083-2.771-.083-6.187 0-3.417.036-6.188.083-6.188.048 0 .084 2.771.084 6.188 0 3.416-.036 6.187-.084 6.187Z"/>
  <path fill="#E1E1E1" d="M206.172 300.413c0 .048-1.433.084-3.213.084-1.779 0-3.212-.036-3.212-.084 0-.048 1.433-.083 3.212-.083 1.78 0 3.213.035 3.213.083Zm.036 4.432c0 .048-1.445.084-3.237.084-1.791 0-3.236-.036-3.236-.084 0-.048 1.445-.084 3.236-.084 1.792-.012 3.237.036 3.237.084Z"/>
  <path fill="#fff" d="M221.736 309.026h-6.425v-12.375h6.425v12.375Z"/>
  <path fill="#E1E1E1" d="M218.711 309.026c-.048 0-.084-2.772-.084-6.188s.036-6.188.084-6.188c.048 0 .083 2.772.083 6.188s-.035 6.188-.083 6.188Z"/>
  <path fill="#E1E1E1" d="M221.745 300.939c0 .048-1.433.083-3.213.083-1.779 0-3.212-.035-3.212-.083s1.433-.084 3.212-.084c1.768 0 3.213.036 3.213.084Zm.023 4.431c0 .048-1.445.084-3.236.084-1.792 0-3.237-.036-3.237-.084 0-.047 1.445-.083 3.237-.083 1.791 0 3.236.036 3.236.083Z"/>
  <path fill="#ECECEC" d="M134.225 314.562h-26.249v-170.89h26.249v170.89Z"/>
  <path fill="#fff" d="M120.843 226.701h-7.978v-15.373h7.978v15.373Z"/>
  <path fill="#E1E1E1" d="M117.08 226.71c-.059 0-.107-3.44-.107-7.692 0-4.253.048-7.693.107-7.693.06 0 .108 3.44.108 7.693 0 4.252-.048 7.692-.108 7.692Z"/>
  <path fill="#E1E1E1" d="M120.842 216.676c0 .06-1.791.108-3.988.108-2.198 0-3.989-.048-3.989-.108 0-.059 1.791-.107 3.989-.107 2.197 0 3.988.048 3.988.107Zm.048 5.495c0 .06-1.803.108-4.025.108-2.221 0-4.024-.048-4.024-.108 0-.059 1.803-.107 4.024-.107 2.222 0 4.025.048 4.025.107Z"/>
  <path fill="#fff" d="M120.843 246.79h-7.978v-15.374h7.978v15.374Z"/>
  <path fill="#E1E1E1" d="M117.08 246.791c-.059 0-.107-3.441-.107-7.693 0-4.253.048-7.693.107-7.693.06 0 .108 3.44.108 7.693 0 4.252-.048 7.693-.108 7.693Z"/>
  <path fill="#E1E1E1" d="M120.842 236.757c0 .059-1.791.107-3.988.107-2.198 0-3.989-.048-3.989-.107 0-.06 1.791-.108 3.989-.108 2.197 0 3.988.048 3.988.108Zm.048 5.494c0 .06-1.803.108-4.025.108-2.221 0-4.024-.048-4.024-.108 0-.059 1.803-.107 4.024-.107 2.222 0 4.025.048 4.025.107Z"/>
  <path fill="#fff" d="M120.843 266.878h-7.978v-15.374h7.978v15.374Z"/>
  <path fill="#E1E1E1" d="M117.08 266.871c-.059 0-.107-3.441-.107-7.693 0-4.253.048-7.693.107-7.693.06 0 .108 3.44.108 7.693 0 4.252-.048 7.693-.108 7.693Z"/>
  <path fill="#E1E1E1" d="M120.842 256.837c0 .059-1.791.107-3.988.107-2.198 0-3.989-.048-3.989-.107 0-.06 1.791-.108 3.989-.108 2.197 0 3.988.048 3.988.108Zm.048 5.506c0 .06-1.803.108-4.025.108-2.221 0-4.024-.048-4.024-.108 0-.059 1.803-.107 4.024-.107 2.222 0 4.025.048 4.025.107Z"/>
  <path fill="#fff" d="M120.843 286.954h-7.978V271.58h7.978v15.374Z"/>
  <path fill="#E1E1E1" d="M117.08 286.963c-.059 0-.107-3.441-.107-7.693 0-4.253.048-7.693.107-7.693.06 0 .108 3.44.108 7.693 0 4.252-.048 7.693-.108 7.693Z"/>
  <path fill="#E1E1E1" d="M120.842 276.929c0 .059-1.791.107-3.988.107-2.198 0-3.989-.048-3.989-.107 0-.06 1.791-.108 3.989-.108 2.197 0 3.988.048 3.988.108Zm.048 5.495c0 .059-1.803.107-4.025.107-2.221 0-4.024-.048-4.024-.107 0-.06 1.803-.108 4.024-.108 2.222 0 4.025.048 4.025.108Zm24.485 32.138h-19.12v-170.89h19.12v170.89Z"/>
  <path fill="#fff" d="M140.17 226.701h-7.977v-15.373h7.977v15.373Z"/>
  <path fill="#E1E1E1" d="M136.415 226.71c-.059 0-.107-3.44-.107-7.692 0-4.253.048-7.693.107-7.693.06 0 .108 3.44.108 7.693-.012 4.252-.06 7.692-.108 7.692Z"/>
  <path fill="#E1E1E1" d="M140.177 216.676c0 .06-1.792.108-3.989.108s-3.989-.048-3.989-.108c0-.059 1.792-.107 3.989-.107s3.989.048 3.989.107Zm.036 5.495c0 .06-1.804.108-4.025.108s-4.025-.048-4.025-.108c0-.059 1.804-.107 4.025-.107s4.025.048 4.025.107Z"/>
  <path fill="#fff" d="M120.843 205.984h-7.978V190.61h7.978v15.374Z"/>
  <path fill="#E1E1E1" d="M117.08 205.985c-.059 0-.107-3.44-.107-7.692 0-4.253.048-7.693.107-7.693.06 0 .108 3.44.108 7.693 0 4.24-.048 7.692-.108 7.692Z"/>
  <path fill="#E1E1E1" d="M120.842 195.951c0 .06-1.791.108-3.988.108-2.198 0-3.989-.048-3.989-.108 0-.059 1.791-.107 3.989-.107 2.197 0 3.988.048 3.988.107Zm.048 5.495c0 .06-1.803.108-4.025.108-2.221 0-4.024-.048-4.024-.108s1.803-.107 4.024-.107c2.222 0 4.025.047 4.025.107Z"/>
  <path fill="#fff" d="M140.17 205.984h-7.977V190.61h7.977v15.374Z"/>
  <path fill="#E1E1E1" d="M136.415 205.985c-.059 0-.107-3.44-.107-7.692 0-4.253.048-7.693.107-7.693.06 0 .108 3.44.108 7.693-.012 4.24-.06 7.692-.108 7.692Z"/>
  <path fill="#E1E1E1" d="M140.177 195.951c0 .06-1.792.108-3.989.108s-3.989-.048-3.989-.108c0-.059 1.792-.107 3.989-.107s3.989.048 3.989.107Zm.036 5.495c0 .06-1.804.108-4.025.108s-4.025-.048-4.025-.108 1.804-.107 4.025-.107 4.025.047 4.025.107Z"/>
  <path fill="#fff" d="M120.843 185.255h-7.978v-15.374h7.978v15.374Z"/>
  <path fill="#E1E1E1" d="M117.08 185.248c-.059 0-.107-3.44-.107-7.693 0-4.252.048-7.692.107-7.692.06 0 .108 3.44.108 7.692 0 4.253-.048 7.693-.108 7.693Z"/>
  <path fill="#E1E1E1" d="M120.842 175.214c0 .06-1.791.108-3.988.108-2.198 0-3.989-.048-3.989-.108s1.791-.107 3.989-.107c2.197 0 3.988.047 3.988.107Zm.048 5.507c0 .06-1.803.107-4.025.107-2.221 0-4.024-.047-4.024-.107s1.803-.108 4.024-.108c2.222 0 4.025.048 4.025.108Z"/>
  <path fill="#fff" d="M140.17 185.255h-7.977v-15.374h7.977v15.374Z"/>
  <path fill="#E1E1E1" d="M136.415 185.248c-.059 0-.107-3.44-.107-7.693 0-4.252.048-7.692.107-7.692.06 0 .108 3.44.108 7.692-.012 4.253-.06 7.693-.108 7.693Z"/>
  <path fill="#E1E1E1" d="M140.177 175.214c0 .06-1.792.108-3.989.108s-3.989-.048-3.989-.108 1.792-.107 3.989-.107 3.989.047 3.989.107Zm.036 5.507c0 .06-1.804.107-4.025.107s-4.025-.047-4.025-.107 1.804-.108 4.025-.108 4.025.048 4.025.108Z"/>
  <path fill="#fff" d="M120.843 164.525h-7.978v-15.374h7.978v15.374Z"/>
  <path fill="#E1E1E1" d="M117.08 164.523c-.059 0-.107-3.44-.107-7.693 0-4.252.048-7.693.107-7.693.06 0 .108 3.441.108 7.693 0 4.253-.048 7.693-.108 7.693Z"/>
  <path fill="#E1E1E1" d="M120.842 154.489c0 .06-1.791.108-3.988.108-2.198 0-3.989-.048-3.989-.108s1.791-.107 3.989-.107c2.197 0 3.988.047 3.988.107Zm.048 5.507c0 .06-1.803.107-4.025.107-2.221 0-4.024-.047-4.024-.107s1.803-.108 4.024-.108c2.222 0 4.025.048 4.025.108Z"/>
  <path fill="#fff" d="M140.17 164.525h-7.977v-15.374h7.977v15.374Z"/>
  <path fill="#E1E1E1" d="M136.415 164.523c-.059 0-.107-3.44-.107-7.693 0-4.252.048-7.693.107-7.693.06 0 .108 3.441.108 7.693-.012 4.253-.06 7.693-.108 7.693Z"/>
  <path fill="#E1E1E1" d="M140.177 154.489c0 .06-1.792.108-3.989.108s-3.989-.048-3.989-.108 1.792-.107 3.989-.107 3.989.047 3.989.107Zm.036 5.507c0 .06-1.804.107-4.025.107s-4.025-.047-4.025-.107 1.804-.108 4.025-.108 4.025.048 4.025.108Z"/>
  <path fill="#fff" d="M140.17 246.952h-7.977v-15.374h7.977v15.374Z"/>
  <path fill="#E1E1E1" d="M136.415 246.958c-.059 0-.107-3.44-.107-7.693 0-4.252.048-7.693.107-7.693.06 0 .108 3.441.108 7.693-.012 4.253-.06 7.693-.108 7.693Z"/>
  <path fill="#E1E1E1" d="M140.177 236.924c0 .059-1.792.107-3.989.107s-3.989-.048-3.989-.107c0-.06 1.792-.108 3.989-.108s3.989.048 3.989.108Zm.036 5.495c0 .059-1.804.107-4.025.107s-4.025-.048-4.025-.107c0-.06 1.804-.108 4.025-.108s4.025.048 4.025.108Z"/>
  <path fill="#fff" d="M140.17 267.202h-7.977v-15.373h7.977v15.373Z"/>
  <path fill="#E1E1E1" d="M136.415 267.205c-.059 0-.107-3.44-.107-7.693 0-4.252.048-7.692.107-7.692.06 0 .108 3.44.108 7.692-.012 4.253-.06 7.693-.108 7.693Z"/>
  <path fill="#E1E1E1" d="M140.177 257.171c0 .06-1.792.108-3.989.108s-3.989-.048-3.989-.108 1.792-.107 3.989-.107 3.989.047 3.989.107Zm.036 5.495c0 .06-1.804.107-4.025.107s-4.025-.047-4.025-.107 1.804-.108 4.025-.108 4.025.048 4.025.108Z"/>
  <path fill="#fff" d="M140.17 287.453h-7.977v-15.374h7.977v15.374Z"/>
  <path fill="#E1E1E1" d="M136.415 287.452c-.059 0-.107-3.44-.107-7.692 0-4.253.048-7.693.107-7.693.06 0 .108 3.44.108 7.693-.012 4.252-.06 7.692-.108 7.692Z"/>
  <path fill="#E1E1E1" d="M140.177 277.418c0 .06-1.792.108-3.989.108s-3.989-.048-3.989-.108c0-.059 1.792-.107 3.989-.107s3.989.048 3.989.107Zm.036 5.495c0 .06-1.804.108-4.025.108s-4.025-.048-4.025-.108c0-.059 1.804-.107 4.025-.107 2.221.012 4.025.059 4.025.107Z"/>
  <path fill="#fff" d="M120.843 307.042h-7.978v-15.374h7.978v15.374Z"/>
  <path fill="#E1E1E1" d="M117.08 307.043c-.059 0-.107-3.44-.107-7.693 0-4.252.048-7.693.107-7.693.06 0 .108 3.441.108 7.693 0 4.253-.048 7.693-.108 7.693Z"/>
  <path fill="#E1E1E1" d="M120.842 297.009c0 .059-1.791.107-3.988.107-2.198 0-3.989-.048-3.989-.107 0-.06 1.791-.108 3.989-.108 2.197 0 3.988.048 3.988.108Zm.048 5.495c0 .059-1.803.107-4.025.107-2.221 0-4.024-.048-4.024-.107 0-.06 1.803-.108 4.024-.108 2.222 0 4.025.048 4.025.108Z"/>
  <path fill="#fff" d="M140.17 307.703h-7.977V292.33h7.977v15.373Z"/>
  <path fill="#E1E1E1" d="M136.415 307.7c-.059 0-.107-3.44-.107-7.693 0-4.252.048-7.693.107-7.693.06 0 .108 3.441.108 7.693-.012 4.253-.06 7.693-.108 7.693Z"/>
  <path fill="#E1E1E1" d="M140.177 297.666c0 .059-1.792.107-3.989.107s-3.989-.048-3.989-.107c0-.06 1.792-.108 3.989-.108s3.989.048 3.989.108Zm.036 5.507c0 .059-1.804.107-4.025.107s-4.025-.048-4.025-.107c0-.06 1.804-.108 4.025-.108s4.025.048 4.025.108Z"/>
  <path fill="#ECECEC" d="M173.496 314.544h-26.954V200.525h26.954v114.019Z"/>
  <path fill="#fff" d="M159.765 224.306h-8.193v-15.792h8.193v15.792Z"/>
  <path fill="#E1E1E1" d="M155.893 224.309c-.06 0-.107-3.535-.107-7.895 0-4.36.047-7.896.107-7.896s.108 3.536.108 7.896c.012 4.36-.048 7.895-.108 7.895Z"/>
  <path fill="#E1E1E1" d="M159.763 214.001c0 .059-1.839.107-4.097.107-2.257 0-4.096-.048-4.096-.107 0-.06 1.839-.108 4.096-.108 2.269 0 4.097.048 4.097.108Zm.047 5.65c0 .06-1.851.107-4.132.107-2.281 0-4.132-.047-4.132-.107s1.851-.108 4.132-.108c2.281 0 4.132.048 4.132.108Z"/>
  <path fill="#fff" d="M159.765 244.933h-8.193v-15.792h8.193v15.792Z"/>
  <path fill="#E1E1E1" d="M155.893 244.939c-.06 0-.107-3.536-.107-7.896 0-4.36.047-7.896.107-7.896s.108 3.536.108 7.896c.012 4.36-.048 7.896-.108 7.896Z"/>
  <path fill="#E1E1E1" d="M159.763 234.63c0 .06-1.839.108-4.097.108-2.257 0-4.096-.048-4.096-.108 0-.059 1.839-.107 4.096-.107 2.269 0 4.097.048 4.097.107Zm.047 5.65c0 .06-1.851.108-4.132.108-2.281 0-4.132-.048-4.132-.108 0-.059 1.851-.107 4.132-.107 2.281 0 4.132.048 4.132.107Z"/>
  <path fill="#fff" d="M159.765 265.559h-8.193v-15.791h8.193v15.791Z"/>
  <path fill="#E1E1E1" d="M155.893 265.569c-.06 0-.107-3.536-.107-7.896 0-4.36.047-7.896.107-7.896s.108 3.536.108 7.896c.012 4.36-.048 7.896-.108 7.896Z"/>
  <path fill="#E1E1E1" d="M159.763 255.26c0 .06-1.839.107-4.097.107-2.257 0-4.096-.047-4.096-.107s1.839-.108 4.096-.108c2.269 0 4.097.048 4.097.108Zm.047 5.65c0 .06-1.851.108-4.132.108-2.281 0-4.132-.048-4.132-.108s1.851-.107 4.132-.107c2.281 0 4.132.047 4.132.107Z"/>
  <path fill="#fff" d="M159.765 286.198h-8.193v-15.792h8.193v15.792Z"/>
  <path fill="#E1E1E1" d="M155.893 286.186c-.06 0-.107-3.535-.107-7.896 0-4.36.047-7.895.107-7.895s.108 3.535.108 7.895c.012 4.372-.048 7.896-.108 7.896Z"/>
  <path fill="#E1E1E1" d="M159.763 275.889c0 .06-1.839.108-4.097.108-2.257 0-4.096-.048-4.096-.108 0-.059 1.839-.107 4.096-.107 2.269 0 4.097.048 4.097.107Zm.047 5.651c0 .059-1.851.107-4.132.107-2.281 0-4.132-.048-4.132-.107 0-.06 1.851-.108 4.132-.108 2.281-.012 4.132.048 4.132.108Zm25.156 33.004h-19.645V200.525h19.645v114.019Z"/>
  <path fill="#fff" d="M179.614 224.306h-8.193v-15.792h8.193v15.792Z"/>
  <path fill="#E1E1E1" d="M175.754 224.309c-.06 0-.108-3.535-.108-7.895 0-4.36.048-7.896.108-7.896.059 0 .107 3.536.107 7.896 0 4.36-.048 7.895-.107 7.895Z"/>
  <path fill="#E1E1E1" d="M179.623 214.001c0 .059-1.839.107-4.096.107s-4.096-.048-4.096-.107c0-.06 1.839-.108 4.096-.108s4.096.048 4.096.108Zm.036 5.65c0 .06-1.851.107-4.132.107-2.281 0-4.132-.047-4.132-.107s1.851-.108 4.132-.108c2.281 0 4.132.048 4.132.108Z"/>
  <path fill="#fff" d="M179.614 245.104h-8.193v-15.792h8.193v15.792Z"/>
  <path fill="#E1E1E1" d="M175.754 245.106c-.06 0-.108-3.535-.108-7.896 0-4.36.048-7.895.108-7.895.059 0 .107 3.535.107 7.895 0 4.361-.048 7.896-.107 7.896Z"/>
  <path fill="#E1E1E1" d="M179.623 234.797c0 .06-1.839.108-4.096.108s-4.096-.048-4.096-.108c0-.059 1.839-.107 4.096-.107s4.096.048 4.096.107Zm.036 5.651c0 .059-1.851.107-4.132.107-2.281 0-4.132-.048-4.132-.107 0-.06 1.851-.108 4.132-.108 2.281 0 4.132.048 4.132.108Z"/>
  <path fill="#fff" d="M179.614 265.902h-8.193V250.11h8.193v15.792Z"/>
  <path fill="#E1E1E1" d="M175.754 265.903c-.06 0-.108-3.536-.108-7.896 0-4.36.048-7.896.108-7.896.059 0 .107 3.536.107 7.896 0 4.36-.048 7.896-.107 7.896Z"/>
  <path fill="#E1E1E1" d="M179.623 255.594c0 .06-1.839.108-4.096.108s-4.096-.048-4.096-.108c0-.059 1.839-.107 4.096-.107s4.096.048 4.096.107Zm.036 5.65c0 .06-1.851.108-4.132.108-2.281 0-4.132-.048-4.132-.108 0-.059 1.851-.107 4.132-.107 2.281 0 4.132.048 4.132.107Z"/>
  <path fill="#fff" d="M179.614 286.7h-8.193v-15.792h8.193V286.7Z"/>
  <path fill="#E1E1E1" d="M175.754 286.7c-.06 0-.108-3.536-.108-7.896 0-4.36.048-7.896.108-7.896.059 0 .107 3.536.107 7.896 0 4.36-.048 7.896-.107 7.896Z"/>
  <path fill="#E1E1E1" d="M179.623 276.391c0 .06-1.839.108-4.096.108s-4.096-.048-4.096-.108 1.839-.107 4.096-.107 4.096.047 4.096.107Zm.036 5.65c0 .06-1.851.108-4.132.108-2.281 0-4.132-.048-4.132-.108 0-.059 1.851-.107 4.132-.107 2.281 0 4.132.048 4.132.107Z"/>
  <path fill="#fff" d="M159.765 306.824h-8.193v-15.792h8.193v15.792Z"/>
  <path fill="#E1E1E1" d="M155.893 306.816c-.06 0-.107-3.536-.107-7.896 0-4.36.047-7.896.107-7.896s.108 3.536.108 7.896c.012 4.36-.048 7.896-.108 7.896Z"/>
  <path fill="#E1E1E1" d="M159.763 296.519c0 .06-1.839.108-4.097.108-2.257 0-4.096-.048-4.096-.108s1.839-.107 4.096-.107c2.269-.012 4.097.047 4.097.107Zm.047 5.638c0 .06-1.851.108-4.132.108-2.281 0-4.132-.048-4.132-.108 0-.059 1.851-.107 4.132-.107 2.281 0 4.132.048 4.132.107Z"/>
  <path fill="#fff" d="M179.614 307.497h-8.193v-15.791h8.193v15.791Z"/>
  <path fill="#E1E1E1" d="M175.754 307.497c-.06 0-.108-3.536-.108-7.896 0-4.36.048-7.896.108-7.896.059 0 .107 3.536.107 7.896 0 4.36-.048 7.896-.107 7.896Z"/>
  <path fill="#E1E1E1" d="M179.623 297.188c0 .06-1.839.107-4.096.107s-4.096-.047-4.096-.107 1.839-.108 4.096-.108 4.096.048 4.096.108Zm.036 5.65c0 .06-1.851.108-4.132.108-2.281 0-4.132-.048-4.132-.108s1.851-.107 4.132-.107c2.281 0 4.132.047 4.132.107Z"/>
  <path fill="#F5F5F5" d="M510.727 183.755c-2.233-5.71-6.222-11.957-10.903-15.911-13.866-11.683-31.433-17.476-49.346-15.708-21.019 2.066-28.22 7.979-33.857 14.991-6.019 7.478-12.313 15.828-10.342 25.217-5.792-4.408-14.713-1.589-19.323 4.049-4.61 5.638-6.031 13.152-7.285 20.319-8.551-2.95-18.63-.931-25.366 5.113-6.735 6.032-9.864 15.827-7.87 24.655-10.091-4.826-23.252-2.09-30.584 6.367-4.371.239-8.491 3.118-10.211 7.143-1.732 4.026-.979 8.995 1.851 12.328-6.831-1.422-13.949 5.59-12.635 12.447-2.054-3.261-6.055-5.173-9.888-4.742-3.822.43-7.297 3.201-8.563 6.832-2.89-2.461-7.285-2.998-10.689-1.326-3.403 1.685-5.648 5.495-5.457 9.282-3.965-3.572-10.068-4.563-14.952-2.413-4.885 2.15-8.288 7.298-8.348 12.638v9.843l273.744-.358.024-117.029v-13.737Z"/>
  <path fill="#ECECEC" d="M521.856 314.562h-32.209V104.826h32.209v209.736Z"/>
  <path fill="#fff" d="M505.446 206.736h-9.793v-18.873h9.793v18.873Z"/>
  <path fill="#E1E1E1" d="M500.827 206.738c-.072 0-.132-4.229-.132-9.437 0-5.208.06-9.437.132-9.437.071 0 .131 4.229.131 9.437-.012 5.208-.06 9.437-.131 9.437Z"/>
  <path fill="#E1E1E1" d="M505.437 194.422c0 .072-2.198.132-4.897.132-2.699 0-4.896-.06-4.896-.132 0-.071 2.185-.131 4.896-.131s4.897.06 4.897.131Zm.06 6.749c0 .072-2.21.132-4.933.132s-4.932-.06-4.932-.132c0-.071 2.209-.131 4.932-.131 2.723 0 4.933.06 4.933.131Z"/>
  <path fill="#fff" d="M505.446 231.38h-9.793v-18.873h9.793v18.873Z"/>
  <path fill="#E1E1E1" d="M500.827 231.381c-.072 0-.132-4.229-.132-9.437 0-5.208.06-9.436.132-9.436.071 0 .131 4.228.131 9.436-.012 5.22-.06 9.437-.131 9.437Z"/>
  <path fill="#E1E1E1" d="M505.437 219.065c0 .072-2.198.132-4.897.132-2.699 0-4.896-.06-4.896-.132 0-.071 2.185-.131 4.896-.131s4.897.06 4.897.131Zm.06 6.75c0 .071-2.21.131-4.933.131s-4.932-.06-4.932-.131c0-.072 2.209-.132 4.932-.132 2.723 0 4.933.06 4.933.132Z"/>
  <path fill="#fff" d="M505.446 256.036h-9.793v-18.874h9.793v18.874Z"/>
  <path fill="#E1E1E1" d="M500.827 256.036c-.072 0-.132-4.228-.132-9.437 0-5.208.06-9.436.132-9.436.071 0 .131 4.228.131 9.436-.012 5.209-.06 9.437-.131 9.437Z"/>
  <path fill="#E1E1E1" d="M505.437 243.721c0 .071-2.198.131-4.897.131-2.699 0-4.896-.06-4.896-.131 0-.072 2.185-.132 4.896-.132s4.897.06 4.897.132Zm.06 6.749c0 .071-2.21.131-4.933.131s-4.932-.06-4.932-.131c0-.072 2.209-.132 4.932-.132 2.723 0 4.933.06 4.933.132Z"/>
  <path fill="#fff" d="M505.446 280.68h-9.793v-18.874h9.793v18.874Z"/>
  <path fill="#E1E1E1" d="M500.827 280.68c-.072 0-.132-4.229-.132-9.437 0-5.208.06-9.437.132-9.437.071 0 .131 4.229.131 9.437-.012 5.22-.06 9.437-.131 9.437Z"/>
  <path fill="#E1E1E1" d="M505.437 268.364c0 .072-2.198.131-4.897.131-2.699 0-4.896-.059-4.896-.131 0-.072 2.185-.132 4.896-.132s4.897.06 4.897.132Zm.06 6.749c0 .072-2.21.131-4.933.131s-4.932-.059-4.932-.131c0-.072 2.209-.131 4.932-.131 2.723 0 4.933.059 4.933.131Zm30.058 39.449h-23.467V104.826h23.467v209.736Z"/>
  <path fill="#fff" d="M529.167 206.736h-9.793v-18.873h9.793v18.873Z"/>
  <path fill="#E1E1E1" d="M524.544 206.738c-.071 0-.131-4.229-.131-9.437 0-5.208.06-9.437.131-9.437.072 0 .132 4.229.132 9.437 0 5.208-.06 9.437-.132 9.437Z"/>
  <path fill="#E1E1E1" d="M529.166 194.422c0 .072-2.197.132-4.896.132s-4.897-.06-4.897-.132c0-.071 2.186-.131 4.897-.131 2.699 0 4.896.06 4.896.131Zm.048 6.749c0 .072-2.209.132-4.932.132-2.723 0-4.933-.06-4.933-.132 0-.071 2.21-.131 4.933-.131s4.932.06 4.932.131Z"/>
  <path fill="#fff" d="M505.446 181.302h-9.793v-18.873h9.793v18.873Z"/>
  <path fill="#E1E1E1" d="M500.827 181.294c-.072 0-.132-4.228-.132-9.436 0-5.209.06-9.437.132-9.437.071 0 .131 4.228.131 9.437-.012 5.22-.06 9.436-.131 9.436Z"/>
  <path fill="#E1E1E1" d="M505.437 168.979c0 .071-2.198.131-4.897.131-2.699 0-4.896-.06-4.896-.131 0-.072 2.185-.132 4.896-.132s4.897.06 4.897.132Zm.06 6.749c0 .071-2.21.131-4.933.131s-4.932-.06-4.932-.131c0-.072 2.209-.132 4.932-.132 2.723 0 4.933.06 4.933.132Z"/>
  <path fill="#fff" d="M529.167 181.302h-9.793v-18.873h9.793v18.873Z"/>
  <path fill="#E1E1E1" d="M524.544 181.294c-.071 0-.131-4.228-.131-9.436 0-5.209.06-9.437.131-9.437.072 0 .132 4.228.132 9.437 0 5.22-.06 9.436-.132 9.436Z"/>
  <path fill="#E1E1E1" d="M529.166 168.979c0 .071-2.197.131-4.896.131s-4.897-.06-4.897-.131c0-.072 2.186-.132 4.897-.132 2.699 0 4.896.06 4.896.132Zm.048 6.749c0 .071-2.209.131-4.932.131-2.723 0-4.933-.06-4.933-.131 0-.072 2.21-.132 4.933-.132s4.932.06 4.932.132Z"/>
  <path fill="#fff" d="M505.446 155.856h-9.793v-18.873h9.793v18.873Z"/>
  <path fill="#E1E1E1" d="M500.827 155.863c-.072 0-.132-4.229-.132-9.437 0-5.208.06-9.437.132-9.437.071 0 .131 4.229.131 9.437-.012 5.208-.06 9.437-.131 9.437Z"/>
  <path fill="#E1E1E1" d="M505.437 143.547c0 .072-2.198.132-4.897.132-2.699 0-4.896-.06-4.896-.132 0-.072 2.185-.131 4.896-.131s4.897.059 4.897.131Zm.06 6.749c0 .072-2.21.132-4.933.132s-4.932-.06-4.932-.132c0-.071 2.209-.131 4.932-.131 2.723 0 4.933.06 4.933.131Z"/>
  <path fill="#fff" d="M529.167 155.856h-9.793v-18.873h9.793v18.873Z"/>
  <path fill="#E1E1E1" d="M524.544 155.863c-.071 0-.131-4.229-.131-9.437 0-5.208.06-9.437.131-9.437.072 0 .132 4.229.132 9.437 0 5.208-.06 9.437-.132 9.437Z"/>
  <path fill="#E1E1E1" d="M529.166 143.547c0 .072-2.197.132-4.896.132s-4.897-.06-4.897-.132c0-.072 2.186-.131 4.897-.131 2.699 0 4.896.059 4.896.131Zm.048 6.749c0 .072-2.209.132-4.932.132-2.723 0-4.933-.06-4.933-.132 0-.071 2.21-.131 4.933-.131s4.932.06 4.932.131Z"/>
  <path fill="#fff" d="M505.446 130.422h-9.793v-18.874h9.793v18.874Z"/>
  <path fill="#E1E1E1" d="M500.827 130.419c-.072 0-.132-4.228-.132-9.437 0-5.208.06-9.436.132-9.436.071 0 .131 4.228.131 9.436-.012 5.209-.06 9.437-.131 9.437Z"/>
  <path fill="#E1E1E1" d="M505.437 118.104c0 .071-2.198.131-4.897.131-2.699 0-4.896-.06-4.896-.131 0-.072 2.185-.132 4.896-.132s4.897.06 4.897.132Zm.06 6.749c0 .071-2.21.131-4.933.131s-4.932-.06-4.932-.131c0-.072 2.209-.132 4.932-.132 2.723 0 4.933.06 4.933.132Z"/>
  <path fill="#fff" d="M529.167 130.422h-9.793v-18.874h9.793v18.874Z"/>
  <path fill="#E1E1E1" d="M524.544 130.419c-.071 0-.131-4.228-.131-9.437 0-5.208.06-9.436.131-9.436.072 0 .132 4.228.132 9.436 0 5.209-.06 9.437-.132 9.437Z"/>
  <path fill="#E1E1E1" d="M529.166 118.104c0 .071-2.197.131-4.896.131s-4.897-.06-4.897-.131c0-.072 2.186-.132 4.897-.132 2.699 0 4.896.06 4.896.132Zm.048 6.749c0 .071-2.209.131-4.932.131-2.723 0-4.933-.06-4.933-.131 0-.072 2.21-.132 4.933-.132s4.932.06 4.932.132Z"/>
  <path fill="#fff" d="M529.167 231.582h-9.793v-18.874h9.793v18.874Z"/>
  <path fill="#E1E1E1" d="M524.544 231.584c-.071 0-.131-4.228-.131-9.437 0-5.208.06-9.436.131-9.436.072 0 .132 4.228.132 9.436 0 5.22-.06 9.437-.132 9.437Z"/>
  <path fill="#E1E1E1" d="M529.166 219.269c0 .071-2.197.131-4.896.131s-4.897-.06-4.897-.131c0-.072 2.186-.132 4.897-.132 2.699 0 4.896.06 4.896.132Zm.048 6.749c0 .071-2.209.131-4.932.131-2.723 0-4.933-.06-4.933-.131 0-.072 2.21-.132 4.933-.132s4.932.06 4.932.132Z"/>
  <path fill="#fff" d="M529.167 256.439h-9.793v-18.874h9.793v18.874Z"/>
  <path fill="#E1E1E1" d="M524.544 256.442c-.071 0-.131-4.228-.131-9.436 0-5.209.06-9.437.131-9.437.072 0 .132 4.228.132 9.437 0 5.208-.06 9.436-.132 9.436Z"/>
  <path fill="#E1E1E1" d="M529.166 244.127c0 .071-2.197.131-4.896.131s-4.897-.06-4.897-.131c0-.072 2.186-.132 4.897-.132 2.699 0 4.896.06 4.896.132Zm.048 6.749c0 .072-2.209.131-4.932.131-2.723 0-4.933-.059-4.933-.131 0-.072 2.21-.131 4.933-.131s4.932.059 4.932.131Z"/>
  <path fill="#fff" d="M529.167 281.296h-9.793v-18.874h9.793v18.874Z"/>
  <path fill="#E1E1E1" d="M524.544 281.289c-.071 0-.131-4.229-.131-9.437 0-5.208.06-9.437.131-9.437.072 0 .132 4.229.132 9.437 0 5.22-.06 9.437-.132 9.437Z"/>
  <path fill="#E1E1E1" d="M529.166 268.973c0 .072-2.197.131-4.896.131s-4.897-.059-4.897-.131c0-.072 2.186-.131 4.897-.131 2.699 0 4.896.059 4.896.131Zm.048 6.749c0 .072-2.209.132-4.932.132-2.723 0-4.933-.06-4.933-.132 0-.071 2.21-.131 4.933-.131s4.932.06 4.932.131Z"/>
  <path fill="#fff" d="M505.446 305.335h-9.793v-18.873h9.793v18.873Z"/>
  <path fill="#E1E1E1" d="M500.827 305.335c-.072 0-.132-4.229-.132-9.437 0-5.208.06-9.437.132-9.437.071 0 .131 4.229.131 9.437-.012 5.208-.06 9.437-.131 9.437Z"/>
  <path fill="#E1E1E1" d="M505.437 293.019c0 .072-2.198.131-4.897.131-2.699 0-4.896-.059-4.896-.131 0-.072 2.185-.131 4.896-.131s4.897.059 4.897.131Zm.06 6.749c0 .072-2.21.132-4.933.132s-4.932-.06-4.932-.132c0-.072 2.209-.131 4.932-.131 2.723 0 4.933.059 4.933.131Z"/>
  <path fill="#fff" d="M529.167 306.141h-9.793v-18.874h9.793v18.874Z"/>
  <path fill="#E1E1E1" d="M524.544 306.147c-.071 0-.131-4.229-.131-9.437 0-5.208.06-9.437.131-9.437.072 0 .132 4.229.132 9.437 0 5.208-.06 9.437-.132 9.437Z"/>
  <path fill="#E1E1E1" d="M529.166 293.831c0 .072-2.197.132-4.896.132s-4.897-.06-4.897-.132c0-.071 2.186-.131 4.897-.131 2.699 0 4.896.06 4.896.131Zm.048 6.749c0 .072-2.209.132-4.932.132-2.723 0-4.933-.06-4.933-.132 0-.071 2.21-.131 4.933-.131s4.932.06 4.932.131Z"/>
  <path fill="#ECECEC" d="M480.33 314.571h-21.89v-92.612h21.89v92.612Z"/>
  <path fill="#fff" d="M469.167 241.268h-6.652v-12.829h6.652v12.829Z"/>
  <path fill="#E1E1E1" d="M466.038 241.272c-.047 0-.083-2.867-.083-6.415s.036-6.414.083-6.414c.048 0 .084 2.866.084 6.414 0 3.536-.036 6.415-.084 6.415Z"/>
  <path fill="#E1E1E1" d="M469.179 232.898c0 .048-1.493.084-3.332.084-1.839 0-3.332-.036-3.332-.084 0-.048 1.493-.083 3.332-.083 1.839 0 3.332.035 3.332.083Zm.036 4.587c0 .048-1.504.084-3.355.084-1.852 0-3.356-.036-3.356-.084 0-.048 1.504-.083 3.356-.083 1.851 0 3.355.035 3.355.083Z"/>
  <path fill="#fff" d="M469.167 258.02h-6.652v-12.83h6.652v12.83Z"/>
  <path fill="#E1E1E1" d="M466.038 258.019c-.047 0-.083-2.867-.083-6.414 0-3.548.036-6.415.083-6.415.048 0 .084 2.867.084 6.415 0 3.547-.036 6.414-.084 6.414Z"/>
  <path fill="#E1E1E1" d="M469.179 249.657c0 .048-1.493.084-3.332.084-1.839 0-3.332-.036-3.332-.084 0-.047 1.493-.083 3.332-.083 1.839-.012 3.332.036 3.332.083Zm.036 4.587c0 .048-1.504.084-3.355.084-1.852 0-3.356-.036-3.356-.084 0-.047 1.504-.083 3.356-.083 1.851-.012 3.355.036 3.355.083Z"/>
  <path fill="#fff" d="M469.167 274.783h-6.652v-12.829h6.652v12.829Z"/>
  <path fill="#E1E1E1" d="M466.038 274.779c-.047 0-.083-2.867-.083-6.415s.036-6.415.083-6.415c.048 0 .084 2.867.084 6.415s-.036 6.415-.084 6.415Z"/>
  <path fill="#E1E1E1" d="M469.179 266.405c0 .048-1.493.083-3.332.083-1.839 0-3.332-.035-3.332-.083s1.493-.084 3.332-.084c1.839 0 3.332.036 3.332.084Zm.036 4.587c0 .048-1.504.083-3.355.083-1.852 0-3.356-.035-3.356-.083s1.504-.084 3.356-.084c1.851 0 3.355.036 3.355.084Z"/>
  <path fill="#fff" d="M469.167 291.534h-6.652v-12.829h6.652v12.829Z"/>
  <path fill="#E1E1E1" d="M466.038 291.538c-.047 0-.083-2.867-.083-6.415s.036-6.414.083-6.414c.048 0 .084 2.866.084 6.414 0 3.536-.036 6.415-.084 6.415Z"/>
  <path fill="#E1E1E1" d="M469.179 283.164c0 .048-1.493.084-3.332.084-1.839 0-3.332-.036-3.332-.084 0-.048 1.493-.083 3.332-.083 1.839 0 3.332.035 3.332.083Zm.036 4.587c0 .048-1.504.084-3.355.084-1.852 0-3.356-.036-3.356-.084 0-.048 1.504-.083 3.356-.083 1.851 0 3.355.035 3.355.083Zm20.43 26.82H473.69v-92.612h15.955v92.612Z"/>
  <path fill="#fff" d="M485.299 241.268h-6.652v-12.829h6.652v12.829Z"/>
  <path fill="#E1E1E1" d="M482.161 241.272c-.048 0-.083-2.867-.083-6.415s.035-6.414.083-6.414.084 2.866.084 6.414c.012 3.536-.036 6.415-.084 6.415Z"/>
  <path fill="#E1E1E1" d="M485.302 232.898c0 .048-1.493.084-3.332.084-1.839 0-3.332-.036-3.332-.084 0-.048 1.493-.083 3.332-.083 1.839 0 3.332.035 3.332.083Zm.035 4.587c0 .048-1.504.084-3.355.084s-3.356-.036-3.356-.084c0-.048 1.505-.083 3.356-.083s3.355.035 3.355.083Z"/>
  <path fill="#fff" d="M485.299 258.163h-6.652v-12.829h6.652v12.829Z"/>
  <path fill="#E1E1E1" d="M482.161 258.163c-.048 0-.083-2.867-.083-6.415s.035-6.415.083-6.415.084 2.867.084 6.415c.012 3.548-.036 6.415-.084 6.415Z"/>
  <path fill="#E1E1E1" d="M485.302 249.789c0 .048-1.493.084-3.332.084-1.839 0-3.332-.036-3.332-.084 0-.048 1.493-.084 3.332-.084 1.839 0 3.332.036 3.332.084Zm.035 4.587c0 .048-1.504.084-3.355.084s-3.356-.036-3.356-.084c0-.048 1.505-.084 3.356-.084s3.355.036 3.355.084Z"/>
  <path fill="#fff" d="M485.299 275.058h-6.652v-12.829h6.652v12.829Z"/>
  <path fill="#E1E1E1" d="M482.161 275.053c-.048 0-.083-2.867-.083-6.414 0-3.548.035-6.415.083-6.415s.084 2.867.084 6.415c.012 3.547-.036 6.414-.084 6.414Z"/>
  <path fill="#E1E1E1" d="M485.302 266.68c0 .047-1.493.083-3.332.083-1.839 0-3.332-.036-3.332-.083 0-.048 1.493-.084 3.332-.084 1.839 0 3.332.036 3.332.084Zm.035 4.587c0 .047-1.504.083-3.355.083s-3.356-.036-3.356-.083c0-.048 1.505-.084 3.356-.084s3.355.036 3.355.084Z"/>
  <path fill="#fff" d="M485.299 291.953h-6.652v-12.829h6.652v12.829Z"/>
  <path fill="#E1E1E1" d="M482.161 291.944c-.048 0-.083-2.867-.083-6.415 0-3.547.035-6.414.083-6.414s.084 2.867.084 6.414c.012 3.548-.036 6.415-.084 6.415Z"/>
  <path fill="#E1E1E1" d="M485.302 283.582c0 .048-1.493.084-3.332.084-1.839 0-3.332-.036-3.332-.084 0-.048 1.493-.083 3.332-.083 1.839-.012 3.332.024 3.332.083Zm.035 4.587c0 .048-1.504.084-3.355.084s-3.356-.036-3.356-.084c0-.048 1.505-.083 3.356-.083 1.851-.012 3.355.024 3.355.083Z"/>
  <path fill="#fff" d="M469.167 308.285h-6.652v-12.829h6.652v12.829Z"/>
  <path fill="#E1E1E1" d="M466.038 308.285c-.047 0-.083-2.867-.083-6.414 0-3.548.036-6.415.083-6.415.048 0 .084 2.867.084 6.415 0 3.547-.036 6.414-.084 6.414Z"/>
  <path fill="#E1E1E1" d="M469.179 299.923c0 .048-1.493.084-3.332.084-1.839 0-3.332-.036-3.332-.084 0-.047 1.493-.083 3.332-.083 1.839-.012 3.332.036 3.332.083Zm.036 4.587c0 .048-1.504.084-3.355.084-1.852 0-3.356-.036-3.356-.084 0-.047 1.504-.083 3.356-.083 1.851-.012 3.355.036 3.355.083Z"/>
  <path fill="#fff" d="M485.299 308.836h-6.652v-12.829h6.652v12.829Z"/>
  <path fill="#E1E1E1" d="M482.161 308.835c-.048 0-.083-2.867-.083-6.415s.035-6.415.083-6.415.084 2.867.084 6.415c.012 3.548-.036 6.415-.084 6.415Z"/>
  <path fill="#E1E1E1" d="M485.302 300.473c0 .048-1.493.084-3.332.084-1.839 0-3.332-.036-3.332-.084 0-.048 1.493-.084 3.332-.084 1.839-.012 3.332.036 3.332.084Zm.035 4.587c0 .048-1.504.084-3.355.084s-3.356-.036-3.356-.084c0-.048 1.505-.084 3.356-.084 1.851-.012 3.355.036 3.355.084Z"/>
  <path fill="#542D1B" d="M95.537 314.891s.453.012 1.349.012c.896 0 2.233.012 3.965.012 3.499.012 8.646.012 15.262.036 13.268.012 32.448.024 56.154.047 47.411.012 112.915.024 185.25.048h1.684v-.322H347.82v.322h12.134v-.322h-10.689v.322h17.436v-.31h-16.039v.31c55.64-.024 103.804-.048 138.055-.06 17.125-.023 30.775-.035 40.138-.047 4.682-.012 8.288-.024 10.737-.024 1.218 0 2.149-.012 2.77-.012s.944-.012.944-.012-.323-.012-.944-.012-1.552-.012-2.77-.012c-2.449 0-6.055-.012-10.737-.024-9.374-.012-23.025-.024-40.138-.048-34.263-.012-82.415-.035-138.055-.059v.31h16.039v-.31h-17.436v.322h10.689v-.322H347.82v.322h11.381v-.322h-1.684c-72.335.024-137.839.035-185.25.047-23.706.024-42.886.036-56.154.048-6.628.012-11.775.024-15.262.036-1.744.012-3.07.012-3.965.012-.896 0-1.35.012-1.35.012Z"/>
  <path fill="#544944" d="M395.578 249.908h26.667v64.983h-26.667v-64.983Zm-145.614-2.329h25.891v67.312h-25.891v-67.312Zm-148.146 0h25.891v67.312h-25.891v-67.312Z"/>
  <path fill="#544944" d="M395.578 249.908s-17.412-18.897-60.214-18.897-59.617 18.897-59.617 18.897h-25.903l-.656-33.65h173.057l-.024 33.65h-26.643Z"/>
  <path fill="#544944" d="M539.436 249.908s-14.796-18.897-57.598-18.897-59.593 18.897-59.593 18.897h-26.583v-33.65h144.431m-290.177 33.65s-19.872-18.897-62.542-18.897-59.665 18.897-59.665 18.897h-26.273v-33.65h175.112l-.8 33.65h-25.832Z"/>
  <path fill="#542D1B" d="M101.436 222.9c0 .084 97.844.155 218.511.155 120.714 0 218.534-.071 218.534-.155s-97.82-.155-218.534-.155c-120.667-.012-218.511.059-218.511.155Zm148.528 42.681c.012-.012.012-.144.024-.383.012-.274.012-.621.024-1.063.011-.943.035-2.269.059-3.906l-.107.108c3.881.035 9.697.059 16.182.059-.072-.071.167.156-.155-.155v5.364l.155-.156c-4.61.024-8.635.06-11.525.072-1.421.024-2.567.036-3.391.048-.382.012-.681.012-.92.024-.227-.024-.346-.024-.346-.012-.012.012.095.012.298.024.227 0 .526.011.884.023.824.012 1.959.024 3.356.048 2.926.024 6.974.048 11.632.072h.155v-5.519c-.322-.322-.095-.084-.167-.155-6.485 0-12.301.024-16.182.06h-.108v.107c.024 1.672.048 3.01.06 3.978.012.43.024.776.024 1.039.036.215.036.335.048.323Z"/>
  <path fill="#000" d="M256.15 265.581h16.182v5.363H256.15v-5.363Z" opacity=".2"/>
  <path fill="#542D1B" d="M393.405 228.275c.012-.012.012-.143.024-.382.012-.275.012-.621.023-1.063.012-.944.036-2.27.06-3.906l-.107.107c3.881.036 9.697.06 16.182.06-.072-.072.167.155-.156-.155v5.363l.156-.155c-4.61.024-8.635.06-11.525.072-1.421.024-2.567.035-3.391.047-.383.012-.681.012-.92.024-.227-.024-.346-.024-.346-.012-.012.012.095.012.298.024.227 0 .526.012.884.024.824.012 1.959.024 3.356.048 2.926.024 6.974.048 11.632.072h.155v-5.519c-.322-.323-.096-.084-.167-.155-6.485 0-12.301.023-16.182.059h-.108v.108c.024 1.672.048 3.01.06 3.978.012.43.024.776.024 1.039.036.215.036.334.048.322Z"/>
  <path fill="#000" d="M399.591 228.275h16.182v5.364h-16.182v-5.364Z" opacity=".2"/>
  <path fill="#542D1B" d="M111.277 265.581c.012-.012.012-.144.024-.383.012-.274.012-.621.024-1.063.011-.943.035-2.269.059-3.906l-.107.108c3.881.035 9.697.059 16.182.059-.072-.071.167.156-.156-.155v5.363l.156-.155c-4.61.024-8.635.06-11.525.072-1.421.024-2.567.036-3.391.048-.383.012-.681.012-.92.024-.227-.024-.346-.024-.346-.012-.012.012.095.012.298.023.227 0 .526.012.884.024.824.012 1.959.024 3.356.048 2.926.024 6.974.048 11.632.072h.155v-5.519c-.322-.322-.095-.084-.167-.155-6.485 0-12.301.024-16.182.06h-.108v.107c.024 1.672.048 3.01.06 3.978.012.43.024.776.024 1.039.024.215.036.335.048.323Zm125.503-35.048c.012-.012.012-.143.024-.382.012-.275.012-.621.023-1.063.012-.944.036-2.27.06-3.907l-.107.108c3.881.036 9.697.06 16.182.06-.072-.072.167.155-.156-.156v5.364l.156-.155c-4.61.024-8.635.059-11.525.071-1.421.024-2.567.036-3.391.048-.383.012-.681.012-.92.024-.227-.024-.346-.024-.346-.012-.012.012.095.012.298.024.227 0 .526.012.884.024.824.012 1.959.024 3.356.048 2.926.023 6.974.047 11.632.071h.155v-5.519c-.322-.322-.096-.083-.167-.155-6.485 0-12.301.024-16.182.06h-.108v.107c.024 1.673.048 3.011.06 3.978.012.43.024.777.024 1.039.036.215.036.335.048.323Zm158.571 53.025c.012-.012.012-.143.024-.382.012-.275.012-.621.024-1.063.012-.944.036-2.27.059-3.906l-.107.107c3.881.036 9.697.06 16.182.06-.072-.072.167.155-.155-.155v5.363l.155-.155c-4.61.024-8.634.06-11.524.072-1.422.024-2.568.035-3.392.047-.382.012-.681.012-.92.024-.227-.024-.346-.024-.346-.012-.012.012.096.012.299.024.226 0 .525.012.883.024.824.012 1.959.024 3.356.048 2.926.024 6.974.048 11.632.072h.155v-5.519c-.322-.323-.095-.084-.167-.155-6.485 0-12.301.023-16.182.059h-.107v.108c.024 1.672.047 3.01.059 3.978.012.43.024.776.024 1.039.036.215.036.334.048.322Zm15.573-21.465c.012-.012.012-.144.024-.395.012-.286.012-.645.024-1.075.012-.967.035-2.281.059-3.882l-.119.12c2.962.011 6.891.023 11.202.047l-.155-.155v2.747c0 .896 0 1.768.012 2.593l.155-.156c-3.237.012-6.019.048-8.002.072-.967.012-1.755.036-2.34.048-.538.012-.848.024-.86.036-.012.012.263.023.8.035.585.012 1.35.024 2.305.048 1.982.024 4.801.06 8.109.072h.155v-.155c0-.837 0-1.697.012-2.593v-2.747l-.167-.167c-4.323.012-8.252.036-11.202.048h-.12v.119c.024 1.637.048 2.974.06 3.954.012.43.024.776.024 1.051.012.227.012.347.024.335Zm-131.199-33.65c.012-.012.012-.144.024-.395.011-.286.011-.645.023-1.075.012-.967.036-2.281.06-3.882l-.119.12c2.961.011 6.89.023 11.202.047.143.144-.191-.191-.156-.155v2.747c0 .896 0 1.768.012 2.593l.156-.156c-3.237.012-6.019.048-8.002.072-.967.012-1.755.036-2.341.048-.549.012-.847.024-.859.036-.012.012.262.023.8.035.585.012 1.349.024 2.305.048 1.982.024 4.801.06 8.109.072h.155v-.155c0-.837 0-1.697.012-2.593v-2.747l-.167-.167c-4.324.012-8.253.036-11.202.048h-.12v.119c.024 1.637.048 2.974.06 3.954.012.43.024.776.024 1.051 0 .227.012.347.024.335Zm236.913-.072c.012-.012.012-.143.024-.394.012-.275.012-.633.024-1.075.012-.956.036-2.27.06-3.895l-.108.108c3.607.012 8.706.036 14.379.048l-.155-.156v5.352l.155-.155c-4.108.024-7.667.059-10.259.071-1.254.024-2.269.036-3.009.048-.334.012-.597.012-.812.024-.191.012-.299.012-.299.024-.012.012.084.012.263.024.203 0 .466.012.788.024.729.012 1.732.024 2.974.047 2.603.024 6.21.048 10.354.072h.155v-5.507l-.167-.167c-5.661.024-10.772.036-14.379.048h-.107v.107c.024 1.649.048 2.999.06 3.966.011.43.023.777.023 1.051.012.215.024.335.036.335Z"/>
  <path fill="#542D1B" d="M108.876 260.217c.012-.012.012-.143.024-.394.012-.287.024-.645.036-1.087.012-.968.036-2.282.06-3.882l-.12.119c2.639.012 6.079.024 9.841.036l-.156-.155v2.747c0 .896 0 1.768.012 2.592l.156-.155c-2.843.012-5.279.048-7.023.072-.836.012-1.528.035-2.054.035-.501.048-.764.06-.776.072-.012.012.227.024.693.036.513.012 1.182.024 2.018.036 1.732.024 4.216.06 7.13.072h.155v-.156c0-.824 0-1.696.012-2.592v-2.747c.036.035-.311-.311-.167-.168-3.75.012-7.19.024-9.841.036h-.119v.12c.024 1.624.047 2.962.059 3.954.012.43.024.776.036 1.051 0 .251.012.37.024.358Zm392.727 46.957c-.036-.024-.335.335-.741.968a15.212 15.212 0 0 0-1.325 2.628 15.603 15.603 0 0 0-.812 2.831c-.132.74-.156 1.206-.12 1.218.096.012.394-1.815 1.23-3.93.812-2.114 1.851-3.667 1.768-3.715Zm-5.243-4.575c-.048.012.012.681.084 1.78a60.11 60.11 0 0 1 .131 4.276 61.67 61.67 0 0 1-.191 4.277c-.084 1.099-.155 1.768-.107 1.78.035.012.191-.657.334-1.756a36.158 36.158 0 0 0 .06-8.601c-.132-1.099-.275-1.768-.311-1.756Zm-4.251 6.379c-.084.048.525 1.278.883 2.927.371 1.636.347 3.022.442 3.022.084.012.251-1.398-.131-3.094-.358-1.696-1.123-2.891-1.194-2.855Zm-14.427.956c.012.024.108-.024.263-.12l-.096-.083c-.286.37-.848 1.242-1.337 2.353-.681 1.517-.932 2.843-.848 2.867.095.024.478-1.243 1.146-2.736.478-1.087.968-1.983 1.159-2.401l.155-.346-.263.263c-.131.107-.191.179-.179.203Zm-4.335-6.021c-.048.012.072.645.215 1.673a43.06 43.06 0 0 1 .406 4.013c.072 1.577.048 3.01-.012 4.038-.048 1.039-.107 1.672-.06 1.684.036 0 .168-.621.287-1.66.107-1.04.179-2.485.107-4.074-.083-1.589-.286-3.022-.501-4.037-.215-1.028-.406-1.649-.442-1.637Zm-4.538 5.722c-.072.06.74 1.051 1.302 2.485.573 1.433.656 2.711.764 2.699.084.012.143-1.326-.466-2.819-.585-1.493-1.54-2.425-1.6-2.365Zm-16.899.299c-.048-.072-1.099.764-1.839 2.21-.752 1.445-.824 2.783-.74 2.783.095.012.31-1.254 1.027-2.628.704-1.398 1.624-2.306 1.552-2.365Zm-6.27-6.236c-.047.024.167.609.454 1.565.287.956.621 2.305.812 3.823.191 1.517.215 2.902.167 3.906-.035 1.003-.095 1.624-.047 1.624.035.012.179-.609.274-1.612a17.98 17.98 0 0 0-.083-3.954c-.203-1.541-.574-2.903-.92-3.847-.334-.955-.621-1.517-.657-1.505Zm-84.17 3.667c-.035-.024-.334.335-.74.968a15.207 15.207 0 0 0-1.326 2.628 15.685 15.685 0 0 0-.812 2.831c-.131.741-.155 1.206-.119 1.218.095.012.394-1.815 1.23-3.93.812-2.114 1.851-3.655 1.767-3.715Zm-5.23-4.575c-.048.012.011.681.083 1.78.072 1.099.143 2.604.131 4.277a61.045 61.045 0 0 1-.191 4.276c-.083 1.099-.155 1.768-.107 1.78.036.012.191-.657.334-1.756.144-1.099.275-2.616.287-4.3a35.131 35.131 0 0 0-.227-4.301c-.131-1.087-.275-1.756-.31-1.756Zm-4.252 6.391c-.084.048.525 1.278.884 2.927.37 1.636.346 3.022.442 3.022.083.012.25-1.398-.132-3.094-.37-1.696-1.134-2.903-1.194-2.855Zm-18.976.502c.012.024.107-.024.262-.12l-.095-.083c-.287.37-.848 1.242-1.338 2.353-.68 1.517-.931 2.843-.848 2.867.096.024.478-1.242 1.147-2.736.478-1.087.967-1.983 1.158-2.401l.156-.346-.263.263c-.131.095-.203.179-.179.203Zm-4.348-6.021c-.047.012.072.645.215 1.673.156 1.027.323 2.448.406 4.013a40.274 40.274 0 0 1-.012 4.038c-.047 1.039-.107 1.672-.059 1.684.036 0 .167-.621.286-1.66.108-1.04.18-2.485.108-4.074-.084-1.588-.287-3.022-.502-4.037-.203-1.027-.394-1.649-.442-1.637Zm-4.526 5.722c-.072.06.74 1.051 1.302 2.485.573 1.433.657 2.711.764 2.699.084.012.143-1.326-.466-2.819-.585-1.505-1.552-2.425-1.6-2.365Zm-22.189.741c-.048-.072-1.099.764-1.839 2.21-.752 1.445-.824 2.783-.74 2.783.095.012.31-1.254 1.027-2.628.704-1.386 1.624-2.294 1.552-2.365Zm-6.27-6.224c-.047.024.168.609.454 1.565.287.956.621 2.306.812 3.823.191 1.517.215 2.902.167 3.906-.035 1.003-.095 1.624-.047 1.624.035.012.179-.609.274-1.612a17.98 17.98 0 0 0-.083-3.954c-.203-1.541-.574-2.903-.92-3.847-.322-.967-.621-1.517-.657-1.505Zm-2.531 6.116c-.072.072.776.92 1.289 2.246.538 1.326.514 2.52.61 2.52.071.024.262-1.23-.311-2.639-.549-1.41-1.553-2.198-1.588-2.127Zm-72.658-.095c-.048-.072-1.099.764-1.839 2.21-.752 1.445-.824 2.783-.74 2.783.095.012.31-1.254 1.027-2.628.704-1.386 1.624-2.294 1.552-2.365Zm-6.389-2.628c-.084.047.872 1.576 1.433 3.703.585 2.114.514 3.918.621 3.918.036 0 .108-.442.096-1.183a12.288 12.288 0 0 0-.406-2.831c-.299-1.075-.705-2.007-1.075-2.652-.359-.633-.633-.979-.669-.955Zm-8.658 3.595c-.048-.071-.956.586-1.744 1.697-.8 1.098-1.123 2.162-1.051 2.197.084.036.537-.943 1.314-2.006.764-1.075 1.54-1.816 1.481-1.888Zm-3.452-3.404c-.095 0-.251 1.66-.597 3.703-.346 2.031-.752 3.667-.657 3.691.084.024.633-1.577.979-3.631.347-2.067.359-3.763.275-3.763Zm-4.048 3.918c-.072.06.382.717.597 1.648.227.932.12 1.72.215 1.732.084.024.347-.8.096-1.815-.227-1.016-.848-1.625-.908-1.565Zm-11.859-1.887c-.084-.036-.61 1.099-1.183 2.52-.573 1.422-.967 2.604-.883 2.64.083.036.609-1.099 1.182-2.521.573-1.421.967-2.604.884-2.639Zm-3.774-4.169c-.096.012.119 2.09.155 4.67.048 2.58-.107 4.671-.012 4.671.048 0 .132-.514.215-1.362.084-.848.144-2.019.12-3.321a31.668 31.668 0 0 0-.227-3.309c-.108-.848-.215-1.361-.251-1.349Zm-19.573 9.616c.083.023.537-1.159 1.194-2.581.657-1.421 1.266-2.532 1.194-2.58-.072-.048-.824 1.004-1.481 2.449-.68 1.433-.991 2.688-.907 2.712Zm-1.601-9.616c-.048 0-.107.525-.179 1.373-.084.848-.191 2.019-.346 3.297-.156 1.29-.323 2.449-.442 3.297-.12.848-.191 1.362-.143 1.374.047.012.191-.502.37-1.338.179-.836.382-1.995.537-3.297a37.62 37.62 0 0 0 .251-3.321c.024-.86 0-1.385-.048-1.385Zm-5.708 4.085c-.084.06.788 1.075 1.337 2.592.573 1.505.561 2.843.669 2.843.072.012.227-1.374-.37-2.95-.574-1.589-1.589-2.545-1.636-2.485Zm266.817-123.467c.072.048 1.72-2.031 3.667-4.635 1.958-2.616 3.487-4.778 3.415-4.838-.071-.047-1.72 2.019-3.666 4.647-1.959 2.604-3.487 4.766-3.416 4.826Z"/>
  <path fill="#E1E1E1" d="M484.597 216.139a4.963 4.963 0 0 0 3.475-1.41c.836-.812 1.672-1.792 1.577-2.353-.203-1.087-1.481-5.041-2.675-7.812-1.183-2.772-7.608-14.358-9.889-16.126-.812-.633-2.006-1.111-3.176-1.458-1.875-.561-3.822-.812-5.769-.812h-64.429s-1.087 2.078-1.182 2.771c-.096.693-.048 24.345-.048 24.345v2.867h82.116v-.012Z"/>
  <path fill="#544944" d="m474.542 191.4 8.455 14.597c.729 1.255-.215 2.807-1.696 2.807h-78.843v-19.232l68.585-.143a4.016 4.016 0 0 1 3.499 1.971Z"/>
  <path fill="#544944" d="M450.789 216.067h17.053v-21.979c0-.657-.525-1.183-1.182-1.183h-14.689c-.657 0-1.182.526-1.182 1.183v21.979Z"/>
  <path fill="#542D1B" d="M450.788 216.067s.012-.072.012-.215c0-.155.012-.358.012-.609.012-.55.012-1.338.024-2.329.012-2.031.036-4.934.06-8.517.012-1.792.012-3.751.024-5.854 0-1.051.012-2.138.012-3.261v-.848c0-.298-.024-.549.095-.776.108-.227.299-.418.538-.514a1.01 1.01 0 0 1 .37-.072h.442c2.376 0 4.872.012 7.452.012h5.959c.334 0 .705-.012.991.012.287.036.561.203.729.454.131.203.167.406.167.669v11.3c.012 3.811.012 7.359.024 10.56l.131-.131c-5.135.024-9.375.047-12.36.071-1.481.012-2.64.024-3.464.036-.382.012-.692.012-.919.012h-.299s.096.012.299.012c.215 0 .513.012.896.012.812.012 1.958.024 3.427.036 3.01.012 7.273.036 12.444.072h.131v-.132c.012-3.201.012-6.761.024-10.56v-11.3c.012-.263-.048-.597-.215-.836a1.316 1.316 0 0 0-.955-.597c-.382-.024-.693-.012-1.039-.012h-5.959c-2.58 0-5.076.012-7.452.012h-.442c-.167 0-.335.036-.478.095-.31.132-.549.371-.693.669-.155.299-.119.633-.119.908v.848c0 1.135.012 2.222.012 3.285.012 2.115.012 4.097.024 5.901.024 3.572.048 6.475.059 8.505.012.98.024 1.756.024 2.294 0 .251.012.442.012.585a.774.774 0 0 0 0 .203Z"/>
  <path fill="#F5F5F5" d="M460.139 207.753h6.951c.06 0 .107-.048.107-.107v-14a.107.107 0 0 0-.107-.108h-6.951a.107.107 0 0 0-.107.108v14c0 .059.048.107.107.107Z"/>
  <path fill="#542D1B" d="M460.581 207.765h6.055a.573.573 0 0 0 .573-.573v-13.104a.573.573 0 0 0-.573-.574h-6.055a.574.574 0 0 0-.573.574v13.104c0 .322.263.573.573.573Zm6.055-14.215c.299 0 .538.239.538.538v13.104a.535.535 0 0 1-.538.537h-6.055a.535.535 0 0 1-.537-.537v-13.104c0-.299.239-.538.537-.538h6.055Z"/>
  <path fill="#F5F5F5" d="M451.708 207.753h6.867a.158.158 0 0 0 .155-.155v-13.916a.159.159 0 0 0-.155-.156h-6.867a.158.158 0 0 0-.155.156v13.916c.012.084.071.155.155.155Z"/>
  <path fill="#542D1B" d="M452.341 207.765h5.601a.8.8 0 0 0 .8-.8v-12.65a.8.8 0 0 0-.8-.801h-5.601a.8.8 0 0 0-.8.801v12.65a.8.8 0 0 0 .8.8Zm5.601-14.215a.77.77 0 0 1 .764.765v12.65c0 .43-.346.764-.764.764h-5.601a.77.77 0 0 1-.764-.764v-12.65a.77.77 0 0 1 .764-.765h5.601Zm1.373 22.493c.084 0 .155-5.172.155-11.551 0-6.379-.071-11.551-.155-11.551s-.155 5.172-.155 11.551c0 6.379.071 11.551.155 11.551Zm.717-10.583h7.165v2.293h-7.165v-2.293Z"/>
  <path fill="#542D1B" d="M451.565 205.46h7.165v2.293h-7.165v-2.293Z"/>
  <path fill="#7B7F85" d="M475.032 192.248h-72.574v-2.676l68.477-.143c1.051 0 2.437.514 3.117 1.314l.98 1.505Z"/>
  <path fill="#ECECEC" d="M478.805 190.373s-.609.334-.215 1.182c.323.717 4.133 6.128 5.936 9.819 1.815 3.692 2.842 6.367 2.842 6.367h.836s-1.099-2.867-1.743-4.276c-.717-1.565-2.843-5.459-4.837-8.78l-2.819-4.312Z"/>
  <path fill="#542D1B" d="M402.457 211.803c0 .083 19.072.155 42.611.155 23.538 0 42.61-.072 42.61-.155 0-.084-19.072-.156-42.61-.156-23.527 0-42.611.072-42.611.156Z"/>
  <path fill="#7B7F85" d="m402.458 216.139 82.14.179c2.245-.346 3.69-1.481 4.693-3.034h-86.833v2.855Z"/>
  <path fill="#542D1B" d="M469.442 186.204c0 .012.131.048.37.119.251.072.609.179 1.063.335.908.322 2.221.848 3.619 1.851.346.251.704.538 1.027.86.322.335.633.717.931 1.123.609.812 1.218 1.72 1.839 2.676a162.096 162.096 0 0 1 3.858 6.391c1.266 2.317 2.353 4.599 3.296 6.689.92 2.091 1.72 4.014 2.114 5.686.059.203.059.418.095.609.024.108 0 .191 0 .287-.012.096 0 .191-.036.275-.119.346-.334.645-.549.908-.442.513-.896.895-1.266 1.206-.37.311-.68.526-.884.681-.203.155-.31.227-.31.239 0 .012.131-.048.346-.191.215-.132.538-.347.932-.633.382-.299.86-.669 1.325-1.183.227-.263.466-.561.61-.956.047-.095.047-.203.059-.31 0-.108.036-.215.012-.323-.036-.203-.036-.43-.083-.645-.371-1.72-1.159-3.655-2.055-5.757-.931-2.103-2.006-4.396-3.284-6.726-1.325-2.305-2.627-4.467-3.881-6.39-.633-.968-1.242-1.864-1.875-2.676-.31-.406-.633-.789-.967-1.135-.347-.346-.717-.609-1.075-.872-1.445-1.003-2.795-1.493-3.714-1.792a10.397 10.397 0 0 0-1.087-.275c-.299-.071-.43-.083-.43-.071Zm18.762 21.549c.012-.036-.311.012-.705-.298-.203-.156-.334-.407-.466-.753-.155-.346-.31-.729-.489-1.147-.382-.872-.824-1.875-1.302-2.974a31.229 31.229 0 0 0-1.791-3.56c-1.421-2.449-2.843-4.563-3.87-6.104-.25-.37-.477-.717-.692-1.039-.203-.299-.347-.574-.347-.824a.728.728 0 0 1 .156-.526c.083-.107.143-.143.131-.155 0-.012-.084.012-.179.107a.804.804 0 0 0-.227.574c-.012.274.131.597.322.907.18.323.406.681.645 1.064.98 1.564 2.377 3.703 3.786 6.14a32.776 32.776 0 0 1 1.803 3.523c.502 1.087.968 2.079 1.362 2.939.191.406.37.788.537 1.123.084.155.143.322.239.466.096.143.203.239.322.322.227.155.43.203.574.215.119.024.191 0 .191 0Z"/>
  <path fill="#542D1B" d="M474.541 191.4s-.047-.107-.179-.311a3.542 3.542 0 0 0-.716-.776 3.97 3.97 0 0 0-1.529-.788c-.669-.203-1.469-.132-2.353-.144-3.57 0-8.741-.012-15.214-.012-12.97.012-31.17.036-52.081.06h-.155v19.543h3.988c26.465-.024 50.433-.036 67.786-.048 2.173 0 4.227-.012 6.186-.012.489-.012.955.036 1.457-.048a2.032 2.032 0 0 0 1.218-.764c.298-.383.442-.872.394-1.338-.024-.478-.299-.884-.502-1.243-1.731-2.974-3.236-5.53-4.454-7.633-1.23-2.09-2.174-3.703-2.83-4.814a52.324 52.324 0 0 1-.741-1.254 39.42 39.42 0 0 0-.275-.418s.072.155.239.442c.167.299.406.717.717 1.266a688.361 688.361 0 0 1 2.77 4.85c1.207 2.102 2.688 4.671 4.407 7.657.215.382.454.741.478 1.171a1.78 1.78 0 0 1-.358 1.206 1.84 1.84 0 0 1-1.111.681c-.43.072-.943.024-1.421.036-1.959 0-4.013-.012-6.186-.012-17.353-.012-41.309-.024-67.785-.048h-3.834l.155.155v-19.232l-.155.156c20.911-.072 39.099-.132 52.081-.168 6.473-.035 11.656-.059 15.215-.083.883.012 1.683-.072 2.34.119a4.001 4.001 0 0 1 1.517.753c.716.597.908 1.075.931 1.051Z"/>
  <path fill="#000" d="M472.487 192.248v10.894l-4.645 2.21v3.44h13.459c.943 0 1.947-.752 1.947-1.696 0-.31 0-.633-.168-.908l-8.049-13.952h-2.544v.012Z" opacity=".3"/>
  <path fill="#fff" d="M466.409 207.753h-5.183l-1.194-1.899v-7.932l6.377 9.831Zm-9.231-14.215 1.552 2.377v7.884l-6.508-10.261h4.956Z" opacity=".6"/>
  <path fill="#F5F5F5" d="M430.271 207.753h17.436a1.31 1.31 0 0 0 1.314-1.314v-11.587c0-.728-.586-1.314-1.314-1.314h-17.436a1.31 1.31 0 0 0-1.314 1.314v11.587c0 .717.597 1.314 1.314 1.314Z"/>
  <path fill="#542D1B" d="M430.271 207.753c.012-.024-.251.012-.633-.203a1.253 1.253 0 0 1-.513-.585c-.144-.287-.108-.657-.108-1.075.012-1.708.024-4.121.048-7.108 0-.752.012-1.541.012-2.353v-1.254c0-.215-.012-.43.036-.609.047-.192.143-.371.274-.514.132-.143.311-.263.502-.323.191-.071.394-.059.633-.059h1.385c.944 0 1.911 0 2.902.012 3.965 0 8.324.012 12.898.012a1.15 1.15 0 0 1 1.111.848c.071.227.035.513.047.8v4.133c0 2.162.012 4.241.012 6.224v.74c0 .215-.059.43-.167.621a1.194 1.194 0 0 1-1.087.562c-.943 0-1.851 0-2.734.012-1.768.012-3.404.012-4.909.024-2.985.024-5.398.036-7.106.047-.824.012-1.468.024-1.934.036-.203.012-.37.012-.502.012-.107-.012-.167-.012-.167 0s.06.012.167.012c.132 0 .299.012.502.012.466.012 1.11.012 1.934.036 1.708.012 4.121.024 7.106.048 1.505.012 3.141.012 4.909.024.883 0 1.791 0 2.734.012.502.035 1.063-.227 1.338-.693.143-.227.215-.502.215-.765v-.74c0-1.983.012-4.062.012-6.224v-4.133c-.012-.275.036-.561-.06-.884-.155-.621-.776-1.087-1.421-1.075-4.574 0-8.933.012-12.898.012-.991 0-1.958 0-2.902.012h-1.385c-.215 0-.478-.012-.717.084a1.4 1.4 0 0 0-.609.406 1.415 1.415 0 0 0-.334.633c-.06.239-.036.466-.036.669v1.254c0 .824.012 1.601.012 2.353.024 2.987.036 5.399.048 7.108.012.406-.024.812.143 1.122.143.299.37.49.573.598.203.107.37.143.49.143.119-.012.179-.024.179-.024Z"/>
  <path fill="#542D1B" d="M429.101 207.753h19.788c.072 0 .132-.06.132-.131v-2.15h-20.064v2.15c0 .071.06.131.144.131Z"/>
  <path fill="#fff" d="m437.15 193.538 9.231 14.215h-5.183l-9.004-14.215h4.956Z" opacity=".6"/>
  <path fill="#F5F5F5" d="M408.608 207.753h17.304c.765 0 1.374-.621 1.374-1.374v-11.455c0-.765-.621-1.374-1.374-1.374h-17.304c-.765 0-1.374.621-1.374 1.374v11.455a1.366 1.366 0 0 0 1.374 1.374Z"/>
  <path fill="#542D1B" d="M408.607 207.753c0-.024-.25.012-.632-.191a1.353 1.353 0 0 1-.681-1.039c-.012-.179 0-.382 0-.585.012-1.697.024-4.122.048-7.096 0-.753.012-1.529.012-2.353v-1.255c0-.215-.012-.43.035-.609a1.29 1.29 0 0 1 .263-.525c.263-.311.657-.466 1.099-.43h1.385c.944 0 1.899 0 2.89.012 3.965 0 8.312.012 12.886.012.514-.012.991.346 1.147.812.095.227.059.49.071.776v4.121c0 2.151.012 4.229.012 6.212v.741c0 .215-.06.442-.167.621a1.257 1.257 0 0 1-1.051.621c-.932 0-1.851 0-2.723.012-1.755.012-3.403.012-4.896.024-2.974.024-5.398.036-7.094.048-.824.011-1.469.023-1.923.035-.203.012-.37.012-.501.012-.12.012-.18.012-.18.024s.06.012.168.012c.131 0 .298.012.501.012.466.012 1.111.012 1.923.036 1.696.012 4.12.024 7.094.048 1.505.012 3.141.012 4.896.024.884 0 1.792 0 2.735.012.514 0 1.039-.287 1.302-.753.143-.227.203-.502.215-.765v-.74c0-1.983.012-4.062.012-6.212v-4.551c0-.155-.036-.31-.084-.466a1.549 1.549 0 0 0-1.457-1.027c-4.562 0-8.921.012-12.886.012-.991 0-1.958 0-2.89.012h-1.385c-.466-.036-1.003.155-1.302.537-.155.18-.263.407-.322.634-.06.238-.036.465-.036.668v1.255c0 .812.012 1.6.012 2.353.024 2.974.036 5.399.048 7.095 0 .215 0 .407.011.598a1.424 1.424 0 0 0 .765 1.087c.203.095.37.131.489.131.132 0 .191-.012.191-.012Z"/>
  <path fill="#542D1B" d="M407.378 207.753h19.764a.145.145 0 0 0 .144-.143v-2.15h-20.064v2.138c0 .084.072.155.156.155Z"/>
  <path fill="#fff" d="m415.415 193.538 9.231 14.215h-5.171l-9.016-14.215h4.956Z" opacity=".6"/>
  <path fill="#544944" d="M302.822 188.975h6.472v25.814h-6.472v-25.814Z"/>
  <path fill="#000" d="M302.822 188.975h6.472v25.814h-6.472v-25.814Z" opacity=".2"/>
  <path fill="#E1E1E1" d="m309.641 216.306 90.798-.179v-27.152l-1.421-2.819-87.837-.394-1.54 2.305v28.239Z"/>
  <path fill="#544944" d="M309.581 189.417h90.858v19.387h-90.858v-19.387Z"/>
  <path fill="#544944" d="M356.777 216.067h17.054v-22.003c0-.645-.513-1.159-1.158-1.159h-14.737c-.645 0-1.159.514-1.159 1.159v22.003Z"/>
  <path fill="#542D1B" d="M356.777 216.067s.012-.072.012-.215c0-.155.012-.358.012-.609.012-.55.012-1.338.024-2.329.012-2.031.036-4.934.06-8.517.012-1.792.012-3.751.024-5.854 0-1.051.012-2.138.012-3.261v-.848c0-.298-.024-.561.095-.788.108-.227.299-.418.538-.514a1.01 1.01 0 0 1 .37-.072h.442c2.376 0 4.872.012 7.452.012h5.959c.334 0 .693-.012 1.003.012.287.036.561.203.729.454.131.203.167.406.155.669v11.312c.012 3.811.012 7.371.024 10.572l.131-.131c-5.135.024-9.375.047-12.36.071-1.481.012-2.64.024-3.464.036-.382.012-.692.012-.919.012-.191-.024-.299-.012-.299-.012s.096.012.299.012c.215 0 .513.012.896.012.812.012 1.958.024 3.427.036 3.01.012 7.273.036 12.444.072h.131v-.132c.012-3.201.012-6.761.024-10.571v-11.313c.012-.262-.036-.597-.215-.836a1.34 1.34 0 0 0-.955-.597c-.37-.012-.693 0-1.039-.012h-5.959c-2.58 0-5.076.012-7.452.012h-.442a1.39 1.39 0 0 0-.49.095c-.31.12-.561.371-.693.669-.143.299-.119.633-.119.908v.86c0 1.135.012 2.234.012 3.285.012 2.115.024 4.097.024 5.901.024 3.584.048 6.475.06 8.505.011.98.023 1.756.023 2.294 0 .251.012.442.012.585 0 .155.012.215.012.215Z"/>
  <path fill="#F5F5F5" d="M366.188 207.741h6.807a.183.183 0 0 0 .179-.179v-13.856a.184.184 0 0 0-.179-.18h-6.807a.184.184 0 0 0-.179.18v13.856c0 .108.083.179.179.179Zm-8.503 0h6.891a.132.132 0 0 0 .132-.131v-13.952a.133.133 0 0 0-.132-.132h-6.891a.133.133 0 0 0-.131.132v13.952c-.012.072.048.131.131.131Z"/>
  <path fill="#542D1B" d="M365.304 216.043c.084 0 .155-5.172.155-11.551 0-6.379-.071-11.551-.155-11.551-.083 0-.155 5.172-.155 11.551-.012 6.379.06 11.551.155 11.551Zm.705-10.583h7.165v2.293h-7.165v-2.293Zm-8.467 0h7.166v2.293h-7.166v-2.293Z"/>
  <path fill="#7B7F85" d="M400.439 189.429v2.807h-90.87v-2.676l90.87-.131Z"/>
  <path fill="#542D1B" d="M309.569 211.803c0 .083 20.338.155 45.429.155s45.429-.072 45.429-.155c0-.084-20.338-.156-45.429-.156-25.079 0-45.429.072-45.429.156Z"/>
  <path fill="#7B7F85" d="m309.641 216.306 90.786-.191v-2.676h-90.786v2.867Z"/>
  <g opacity=".6">
    <path fill="#fff" d="M372.398 207.753h-5.183l-1.206-1.899v-7.932l6.389 9.831Zm-9.231-14.227 1.541 2.389v7.872l-6.497-10.261h4.956Z" opacity=".5"/>
  </g>
  <path fill="#F5F5F5" d="M336.081 207.741h17.818c.621 0 1.123-.501 1.123-1.123v-11.957c0-.621-.502-1.123-1.123-1.123h-17.818c-.621 0-1.122.502-1.122 1.123v11.957a1.106 1.106 0 0 0 1.122 1.123Z"/>
  <path fill="#542D1B" d="M336.081 207.741c.012-.024-.251.024-.621-.227a1.103 1.103 0 0 1-.43-.645c-.06-.298-.012-.693-.012-1.111.012-1.708.024-4.145.048-7.143 0-.753.012-1.541.012-2.365v-1.254c0-.215-.012-.43.036-.61a.935.935 0 0 1 .31-.489.967.967 0 0 1 .526-.239c.191-.012.442 0 .669-.012h1.397c.943 0 1.911 0 2.914.012 3.988 0 8.371.012 12.969.012.502-.012.956.418.968.919v4.994c0 2.174.011 4.264.011 6.259v.741a.96.96 0 0 1-.191.597c-.119.167-.31.298-.501.358s-.43.036-.669.048c-.943 0-1.863 0-2.747.012-1.767.012-3.415.012-4.932.024-2.997.024-5.434.036-7.142.048-.824.012-1.468.023-1.946.035-.203.012-.37.012-.502.012-.119.012-.167.024-.167.024s.06.012.167.012c.132 0 .299.012.502.012.466.012 1.122.012 1.946.036 1.708.012 4.145.024 7.142.048 1.505.012 3.165.012 4.932.024.884 0 1.804 0 2.747.012h.358c.132 0 .263-.012.394-.06a1.288 1.288 0 0 0 .908-1.242v-.741c0-1.995.012-4.085.012-6.259v-5.005c-.012-.657-.621-1.243-1.29-1.219-4.598 0-8.981.012-12.969.012-.991 0-1.971 0-2.914.012h-1.397c-.239 0-.442-.012-.693.012-.251.036-.49.143-.669.31a1.222 1.222 0 0 0-.382.622c-.072.251-.036.466-.048.681v1.254c0 .824.012 1.612.012 2.365.024 2.998.036 5.435.048 7.143.024.43-.024.789.048 1.135.083.335.298.55.489.681.191.119.37.155.478.167a.414.414 0 0 0 .179-.012Z"/>
  <path fill="#542D1B" d="M335.042 207.741h19.872c.06 0 .096-.048.096-.095v-2.186h-20.064v2.186c0 .059.048.095.096.095Z"/>
  <path fill="#fff" d="m343.139 193.526 9.232 14.227h-5.183l-9.005-14.227h4.956Z" opacity=".6"/>
  <path fill="#F5F5F5" d="M314.167 207.741h18.152c.525 0 .955-.43.955-.955v-12.304a.958.958 0 0 0-.955-.956h-18.152a.959.959 0 0 0-.956.956v12.304c0 .525.43.955.956.955Z"/>
  <path fill="#542D1B" d="M314.167 207.741c.012-.024-.263.024-.597-.251a.972.972 0 0 1-.311-.704c0-.335.012-.705.012-1.123.012-1.72.024-4.157.048-7.167 0-.753.012-1.553.012-2.378v-1.266c.012-.215-.024-.442.036-.609a.88.88 0 0 1 .334-.442c.167-.107.346-.143.573-.131h2.078c.944 0 1.923 0 2.926.012 4.001 0 8.408.012 13.017.012a.78.78 0 0 1 .621.298.81.81 0 0 1 .156.323c.024.107.012.239.024.394v5.017c0 2.174.012 4.276.012 6.283v.741a.835.835 0 0 1-.215.573.803.803 0 0 1-.538.263h-.704c-.944 0-1.863 0-2.759.012-1.78.012-3.44.012-4.956.024-3.01.024-5.458.036-7.166.048-.824.012-1.481.023-1.946.035-.203.012-.371.012-.502.012-.095.012-.155.024-.155.024s.06.012.167.012c.131 0 .299.012.502.012.465.012 1.122.012 1.946.036 1.72.012 4.156.024 7.166.048 1.516.012 3.176.012 4.956.024.895 0 1.815 0 2.758.012h.729c.275-.024.549-.144.728-.359.192-.203.299-.501.287-.776v-.741c0-2.007.012-4.109.012-6.283v-5.017c0-.131.012-.287-.024-.466a1.126 1.126 0 0 0-1.087-.884c-4.621 0-9.016.012-13.017.012-1.003 0-1.97 0-2.926.012h-2.078c-.227-.012-.513.036-.716.179a1.077 1.077 0 0 0-.442.585c-.072.251-.036.478-.048.681v1.267c0 .824.012 1.624.012 2.377.024 3.01.036 5.459.048 7.167 0 .418.012.8.012 1.123.012.346.179.609.358.752.394.311.669.227.657.227Z"/>
  <path fill="#542D1B" d="M313.283 207.741h19.932c.036 0 .072-.024.072-.071v-2.21h-20.064v2.222c-.012.035.024.059.06.059Z"/>
  <path fill="#fff" d="m321.404 193.526 9.231 14.227h-5.183l-9.004-14.227h4.956Z" opacity=".6"/>
  <path fill="#F5F5F5" d="M377.594 207.741h17.029a1.52 1.52 0 0 0 1.517-1.517v-11.181a1.52 1.52 0 0 0-1.517-1.517h-17.029a1.52 1.52 0 0 0-1.517 1.517v11.181a1.504 1.504 0 0 0 1.517 1.517Z"/>
  <path fill="#542D1B" d="M377.593 207.741c0-.024-.239.012-.633-.179-.382-.167-.907-.705-.824-1.553.012-1.696.024-4.097.048-7.071 0-.753.012-1.529.012-2.342v-1.242c0-.215-.012-.418.036-.609s.131-.371.251-.538a1.37 1.37 0 0 1 1.039-.549h1.373c.931 0 1.899 0 2.878.012 3.953 0 8.288.012 12.838.012.514 0 1.003.31 1.218.764.12.227.144.466.144.741v4.109c0 2.15.012 4.217.012 6.188v.728c0 .215-.06.442-.156.633a1.378 1.378 0 0 1-1.015.717c-.896.036-1.827.012-2.699.024-1.755.012-3.391.012-4.884.024-2.962.024-5.374.036-7.07.048-.812.012-1.457.024-1.923.035-.203.012-.37.012-.502.012l-.143.036s.06.012.167.012c.132 0 .299.012.502.012.466.012 1.111.012 1.923.036 1.696.012 4.096.024 7.07.048 1.492.012 3.129.012 4.884.024.884-.012 1.768.024 2.735-.012a1.676 1.676 0 0 0 1.23-.86c.119-.239.191-.502.191-.765v-.74c0-1.971.012-4.05.012-6.188v-4.109c.012-.275-.024-.621-.167-.884a1.669 1.669 0 0 0-1.505-.944c-4.55 0-8.885.012-12.838.012-.991 0-1.947 0-2.878.012-.466 0-.932 0-1.386.012a1.658 1.658 0 0 0-1.242.657 1.58 1.58 0 0 0-.286.645c-.048.239-.036.466-.036.669v1.242c0 .812.012 1.601.012 2.341.024 2.963.036 5.376.048 7.072-.024.418.083.812.286 1.087.191.275.43.43.633.526.394.155.645.095.645.095Z"/>
  <path fill="#542D1B" d="M376.292 207.741h19.621c.12 0 .227-.095.227-.227v-2.054h-20.063v2.066c-.012.12.095.215.215.215Z"/>
  <path fill="#fff" d="m384.257 193.526 9.232 14.227h-5.171l-9.017-14.227h4.956Z" opacity=".6"/>
  <path fill="#544944" d="M217.01 216.31h-6.472v-25.814h6.472v25.814Z"/>
  <path fill="#000" d="M217.01 216.31h-6.472v-25.814h6.472v25.814Z" opacity=".2"/>
  <path fill="#E1E1E1" d="M131.197 216.139a4.963 4.963 0 0 1-3.475-1.41c-.836-.812-1.672-1.791-1.576-2.353.203-1.087 1.48-5.041 2.675-7.812 1.182-2.771 7.607-14.358 9.888-16.126.812-.633 2.006-1.111 3.177-1.458 1.875-.561 3.821-.812 5.768-.812h64.429s1.087 2.078 1.182 2.771c.096.693.048 24.345.048 24.345v2.867h-82.116v-.012Z"/>
  <path fill="#544944" d="m141.252 191.4-8.455 14.597c-.728 1.255.215 2.807 1.696 2.807h78.844v-19.232l-68.585-.143c-1.457-.012-2.795.753-3.5 1.971Z"/>
  <path fill="#544944" d="M164.994 216.067H147.94V194.47c0-.86.705-1.565 1.565-1.565h13.924c.86 0 1.565.705 1.565 1.565v21.597Z"/>
  <path fill="#542D1B" d="M164.994 216.067s.012-.06.012-.191c0-.155.012-.346.012-.585 0-.55.012-1.314.024-2.282.012-2.019.036-4.909.059-8.469.012-1.792.012-3.763.024-5.877 0-1.051.012-2.15.012-3.273v-.848a1.719 1.719 0 0 0-.227-.896c-.298-.562-.955-.908-1.588-.872-2.365 0-4.849-.012-7.416-.012h-6.449c-.191 0-.37.036-.549.107-.359.12-.657.371-.86.693a1.775 1.775 0 0 0-.275.812c-.012.287 0 .526-.012.789v10.428c.012 3.775.012 7.311.024 10.488v.132h.131c5.159-.024 9.435-.048 12.432-.072 1.469-.012 2.616-.024 3.428-.036.37-.012.669-.012.896-.012.226-.012.334-.012.322-.024 0 0-.119-.012-.322-.012-.227 0-.526-.012-.92-.012-.812-.012-1.982-.024-3.463-.036-2.986-.011-7.225-.035-12.361-.071l.132.131c.012-3.189.012-6.713.024-10.488v-11.193a1.38 1.38 0 0 1 .214-.657c.168-.25.418-.465.705-.561.275-.119.597-.084.944-.084h5.935c2.568 0 5.052-.012 7.416-.012a1.428 1.428 0 0 1 1.338.717c.131.227.191.478.191.753v.848c0 1.111.012 2.198.012 3.249.012 2.09.012 4.049.024 5.829.024 3.56.047 6.451.059 8.481.012.992.024 1.768.024 2.318 0 .251.012.454.012.609.036.119.036.191.036.191Z"/>
  <path fill="#F5F5F5" d="M155.619 207.753h-6.89a.145.145 0 0 1-.144-.143v-13.94c0-.072.06-.144.144-.144h6.89c.072 0 .144.06.144.144v13.94c0 .072-.06.143-.144.143Zm8.444 0h-6.832a.163.163 0 0 1-.167-.167v-13.88c0-.096.072-.168.167-.168h6.832c.095 0 .167.072.167.168v13.88a.17.17 0 0 1-.167.167Z"/>
  <path fill="#542D1B" d="M156.467 216.043c.084 0 .156-5.172.156-11.551 0-6.379-.072-11.551-.156-11.551-.083 0-.155 5.172-.155 11.551 0 6.379.072 11.551.155 11.551Zm-.71-8.291h-7.165v-2.293h7.165v2.293Zm8.466 0h-7.165v-2.293h7.165v2.293Z"/>
  <path fill="#7B7F85" d="M140.751 192.248h72.574v-2.676l-68.478-.143c-1.051 0-2.436.514-3.117 1.314l-.979 1.505Z"/>
  <path fill="#ECECEC" d="M136.977 190.373s.609.334.215 1.182c-.322.717-4.132 6.128-5.935 9.819-1.815 3.692-2.842 6.367-2.842 6.367h-.836s1.098-2.867 1.743-4.276c.717-1.565 2.842-5.459 4.837-8.78l2.818-4.312Z"/>
  <path fill="#542D1B" d="M213.325 211.803c0-.084-19.072-.156-42.61-.156-23.539 0-42.611.072-42.611.156 0 .083 19.072.155 42.611.155 23.538.012 42.61-.06 42.61-.155Z"/>
  <path fill="#7B7F85" d="m213.325 216.139-82.14.179c-2.245-.346-3.69-1.481-4.693-3.034h86.833v2.855Z"/>
  <path fill="#542D1B" d="M146.352 186.204c0-.012-.131 0-.394.048-.251.047-.621.131-1.087.274-.931.287-2.269.789-3.714 1.792a7.922 7.922 0 0 0-1.075.872c-.346.347-.657.729-.967 1.135a48.856 48.856 0 0 0-1.875 2.676 131.405 131.405 0 0 0-3.881 6.39c-1.278 2.33-2.353 4.623-3.284 6.726-.908 2.114-1.696 4.037-2.055 5.757-.047.215-.059.43-.083.645-.024.108.012.215.012.323.012.107.012.215.059.311.144.394.383.692.61.955.465.526.943.896 1.325 1.183.394.286.705.501.932.633.215.131.334.191.346.191 0-.012-.107-.084-.311-.239-.203-.155-.513-.37-.883-.681-.37-.31-.824-.693-1.266-1.206-.215-.263-.43-.562-.549-.908-.048-.084-.036-.179-.036-.275 0-.095-.024-.179 0-.287.036-.203.036-.406.095-.609.382-1.672 1.194-3.595 2.114-5.686.943-2.09 2.03-4.372 3.296-6.689a149.785 149.785 0 0 1 3.858-6.391 45.416 45.416 0 0 1 1.839-2.676c.298-.406.609-.788.931-1.123a8.654 8.654 0 0 1 1.027-.86c1.397-1.003 2.723-1.529 3.619-1.851.454-.155.812-.263 1.063-.335.203-.047.334-.083.334-.095Zm-18.773 21.549c0 .012.071.024.215.012.143-.012.346-.06.573-.215.107-.072.227-.179.322-.322.096-.144.156-.311.239-.466.167-.347.346-.717.538-1.123.394-.86.859-1.852 1.361-2.939a35.568 35.568 0 0 1 1.803-3.524c1.409-2.436 2.807-4.575 3.786-6.139.239-.395.466-.753.645-1.064.191-.31.334-.633.322-.907a.829.829 0 0 0-.227-.574c-.107-.095-.179-.119-.179-.107-.012.012.048.047.132.155a.793.793 0 0 1 .155.526c-.012.25-.143.513-.346.824-.203.31-.442.657-.693 1.039-1.027 1.541-2.448 3.655-3.869 6.104a31.08 31.08 0 0 0-1.792 3.56 205.253 205.253 0 0 0-1.302 2.974c-.179.418-.346.801-.489 1.147-.131.346-.263.597-.466.753-.406.286-.74.25-.728.286Z"/>
  <path fill="#542D1B" d="M141.252 191.4c.024.024.215-.454.932-1.039.358-.287.86-.585 1.517-.753.657-.191 1.445-.107 2.34-.119 3.571.024 8.742.048 15.215.083 12.97.036 31.17.096 52.081.168l-.155-.156v19.232l.155-.155h-3.834c-26.464.024-50.432.036-67.785.048-2.173 0-4.227.012-6.186.012-.478-.012-.991.036-1.421-.036a1.875 1.875 0 0 1-1.111-.681 1.78 1.78 0 0 1-.358-1.206c.024-.43.263-.789.478-1.171 1.719-2.986 3.2-5.555 4.406-7.657a798.207 798.207 0 0 0 2.771-4.85c.311-.549.549-.967.717-1.266.155-.299.238-.454.238-.454s-.095.143-.262.418c-.167.287-.418.705-.741 1.254-.657 1.111-1.6 2.736-2.83 4.814-1.23 2.103-2.723 4.659-4.455 7.633-.203.359-.477.765-.501 1.243-.048.466.107.955.394 1.338.299.382.728.669 1.218.764.502.084.967.036 1.457.048 1.959 0 4.013.012 6.186.012 17.353.012 41.309.024 67.785.048h3.989v-19.543h-.155c-20.911-.024-39.1-.036-52.081-.06-6.473 0-11.656.012-15.215.012-.883.012-1.683-.059-2.352.144a3.97 3.97 0 0 0-1.529.788 3.88 3.88 0 0 0-.716.776 2.145 2.145 0 0 0-.192.311Z"/>
  <path fill="#000" d="M143.295 192.248v10.894l4.645 2.21v3.44h-13.459c-.943 0-1.947-.752-1.947-1.696 0-.31 0-.633.168-.908l8.049-13.952h2.544v.012Z" opacity=".3"/>
  <g opacity=".6">
    <path fill="#fff" d="M149.374 207.753h5.182l1.207-1.899v-7.932l-6.389 9.831Zm9.231-14.215-1.541 2.377v7.884l6.497-10.261h-4.956Z" opacity=".5"/>
  </g>
  <path fill="#F5F5F5" d="M185.619 207.753h-17.663a1.202 1.202 0 0 1-1.206-1.206v-11.814c0-.669.537-1.207 1.206-1.207h17.663c.668 0 1.206.538 1.206 1.207v11.814c0 .669-.538 1.206-1.206 1.206Z"/>
  <path fill="#542D1B" d="M185.619 207.753s.059.012.179 0c.119-.012.286-.048.489-.155.192-.12.406-.323.526-.645.119-.323.06-.705.084-1.123.011-1.708.023-4.133.047-7.131 0-.753.012-1.541.012-2.366v-1.254c0-.203.024-.43-.036-.681a1.346 1.346 0 0 0-.358-.621 1.365 1.365 0 0 0-.645-.346c-.251-.048-.477-.024-.704-.036h-1.398c-.943 0-1.91 0-2.902-.012-3.976 0-8.347-.012-12.933-.012-.657-.012-1.266.514-1.35 1.159-.036.609-.012 1.147-.012 1.708v3.297c0 2.162.012 4.252.012 6.247v.741c0 .275.084.549.239.776.155.227.37.395.621.49.251.108.526.096.752.096.944 0 1.852 0 2.747-.012 1.768-.012 3.416-.012 4.92-.024 2.986-.024 5.422-.036 7.13-.048.824-.012 1.469-.024 1.935-.036.203-.012.37-.012.501-.012.084.012.144 0 .144 0s-.06-.012-.168-.012c-.131 0-.298-.012-.501-.012-.466-.012-1.111-.012-1.935-.035-1.708-.012-4.132-.024-7.129-.048-1.505-.012-3.153-.012-4.921-.024-.883 0-1.803 0-2.746-.012-.251 0-.454.012-.645-.072a1.043 1.043 0 0 1-.49-.394 1.104 1.104 0 0 1-.179-.609v-.741c0-1.995.012-4.073.012-6.247v-3.297c.012-.55-.012-1.147.012-1.661.059-.489.525-.895 1.027-.883 4.586 0 8.957-.012 12.933-.012.992 0 1.959 0 2.902-.012h1.398c.227 0 .466-.012.645.024.191.047.37.143.513.274a.935.935 0 0 1 .287.502c.048.179.036.394.036.609v1.254c0 .825.012 1.613.012 2.366.023 2.986.035 5.423.047 7.131-.012.418.048.8-.047 1.099a1.176 1.176 0 0 1-.466.621c-.347.203-.597.167-.597.191Z"/>
  <path fill="#542D1B" d="M186.705 207.753h-19.836a.12.12 0 0 1-.12-.119v-2.174h20.064v2.174c.012.06-.036.119-.108.119Z"/>
  <path fill="#fff" d="m178.632 193.538-9.231 14.215h5.183l9.004-14.215h-4.956Z" opacity=".6"/>
  <path fill="#F5F5F5" d="M207.438 207.753h-17.83a1.121 1.121 0 0 1-1.123-1.123v-11.969c0-.621.502-1.123 1.123-1.123h17.83c.621 0 1.123.502 1.123 1.123v11.969c0 .622-.502 1.123-1.123 1.123Z"/>
  <path fill="#542D1B" d="M207.438 207.753s.059.012.179 0c.119-.012.286-.048.478-.179.191-.119.394-.346.477-.681.072-.346.024-.705.048-1.135.012-1.708.024-4.145.048-7.143 0-.753.012-1.541.012-2.365v-1.254c-.012-.203.024-.43-.048-.681a1.3 1.3 0 0 0-.382-.621 1.211 1.211 0 0 0-.681-.299c-.251-.024-.466-.012-.693-.012h-1.397c-.943 0-1.911 0-2.914-.012-3.989 0-8.371-.012-12.969-.012-.669-.012-1.266.562-1.278 1.23v5.006c0 2.174.012 4.264.012 6.259v.741c0 .274.083.549.251.776.167.227.394.382.656.454.275.084.526.048.753.048.943 0 1.863 0 2.747-.012 1.767-.012 3.415-.012 4.932-.024 2.997-.024 5.434-.036 7.141-.048.824-.012 1.469-.024 1.947-.036.203-.012.37-.012.502-.012.119.024.179.012.179.012s-.06-.012-.167-.012c-.132 0-.299-.012-.502-.012-.466-.012-1.123-.012-1.947-.035-1.707-.012-4.144-.024-7.141-.048-1.505-.012-3.165-.012-4.932-.024-.884 0-1.804 0-2.747-.012-.239-.012-.478.024-.669-.048a.9.9 0 0 1-.502-.358.968.968 0 0 1-.191-.598v-.74c0-1.995.012-4.085.012-6.259v-4.994c.012-.489.454-.931.956-.919 4.597 0 8.98-.012 12.969-.012.991 0 1.971 0 2.914-.012h1.397c.227 0 .478-.012.669 0 .191.024.382.107.538.239.143.131.25.298.31.477.06.18.036.395.036.61v1.254c0 .824.012 1.612.012 2.365.024 2.998.036 5.435.048 7.143-.012.418.035.813-.012 1.111a1.052 1.052 0 0 1-.43.645c-.371.251-.633.215-.621.239Z"/>
  <path fill="#542D1B" d="M208.465 207.753h-19.872a.094.094 0 0 1-.096-.095v-2.198h20.064v2.186c0 .059-.048.107-.096.107Z"/>
  <path fill="#fff" d="m200.368 193.538-9.231 14.215h5.183l9.004-14.215h-4.956Z" opacity=".6"/>
  <path fill="#E1E1E1" d="m215.463 216.306 90.786-.179v-27.152l-1.421-2.819-87.825-.394-1.54 2.305v28.239Z"/>
  <path fill="#544944" d="M215.391 189.417h90.858v19.387h-90.858v-19.387Z"/>
  <path fill="#544944" d="M262.587 216.067h17.054v-22.135c0-.561-.454-1.027-1.027-1.027h-15.012c-.561 0-1.027.454-1.027 1.027v22.135h.012Z"/>
  <path fill="#542D1B" d="M262.587 216.067s.012-.072.012-.215c0-.155.012-.358.012-.609.012-.55.012-1.338.024-2.329.012-2.031.036-4.946.06-8.529.012-1.792.012-3.763.024-5.866 0-1.051.012-2.138.012-3.261v-1.278c0-.131.024-.251.071-.37a.945.945 0 0 1 .526-.502c.227-.083.537-.036.836-.048 2.376 0 4.872.012 7.464.012h6.986c.287 0 .573.156.729.395.131.203.143.394.143.669v11.336c.012 3.822.012 7.382.024 10.595l.131-.131c-5.135.024-9.375.048-12.36.071-1.481.012-2.639.024-3.463.036-.383.012-.693.012-.92.012-.191 0-.299.012-.311.012 0 0 .096.012.299.012.215 0 .514.012.896.012.812.012 1.958.024 3.427.036 3.01.012 7.273.036 12.444.072h.132v-.132c.012-3.213.012-6.773.023-10.595v-11.336c.012-.239-.012-.598-.191-.849a1.18 1.18 0 0 0-1.003-.537h-6.986c-2.592 0-5.088.012-7.464.012h-.442c-.143 0-.334.012-.478.06a1.148 1.148 0 0 0-.704.668c-.06.156-.084.323-.084.478v1.29c0 1.135.012 2.234.012 3.297.012 2.127.012 4.098.024 5.913.024 3.584.048 6.487.06 8.517.012.98.024 1.756.024 2.306 0 .251.011.442.011.597v.179Z"/>
  <path fill="#F5F5F5" d="M271.951 207.741h6.914a.132.132 0 0 0 .132-.131v-13.964a.133.133 0 0 0-.132-.132h-6.914a.133.133 0 0 0-.132.132v13.964c.012.083.06.131.132.131Zm-8.468 0h6.914a.132.132 0 0 0 .132-.131v-13.964a.133.133 0 0 0-.132-.132h-6.914a.133.133 0 0 0-.132.132v13.964c.012.083.06.131.132.131Z"/>
  <path fill="#542D1B" d="M271.114 216.043c.084 0 .156-5.172.156-11.551 0-6.379-.072-11.551-.156-11.551-.083 0-.155 5.172-.155 11.551 0 6.379.072 11.551.155 11.551Zm.717-10.583h7.166v2.293h-7.166v-2.293Zm-8.468 0h7.166v2.293h-7.166v-2.293Z"/>
  <path fill="#7B7F85" d="M306.249 189.429v2.807h-90.858v-2.676l90.858-.131Z"/>
  <path fill="#542D1B" d="M215.391 211.803c0 .083 20.338.155 45.429.155s45.429-.072 45.429-.155c0-.084-20.338-.156-45.429-.156s-45.429.072-45.429.156Z"/>
  <path fill="#7B7F85" d="m215.463 216.306 90.786-.191v-2.676h-90.786v2.867Z"/>
  <g opacity=".6">
    <path fill="#fff" d="M278.208 207.753h-5.183l-1.194-1.899v-7.932l6.377 9.831Zm-9.231-14.227 1.552 2.389v7.872l-6.508-10.261h4.956Z" opacity=".5"/>
  </g>
  <path fill="#F5F5F5" d="M242.046 207.741h17.484c.716 0 1.289-.573 1.289-1.29v-11.635c0-.716-.573-1.29-1.289-1.29h-17.484c-.717 0-1.29.574-1.29 1.29v11.635c0 .717.585 1.29 1.29 1.29Z"/>
  <path fill="#542D1B" d="M242.046 207.741c.012-.024-.25.024-.633-.203a1.253 1.253 0 0 1-.513-.585c-.143-.287-.084-.657-.096-1.087.012-1.708.024-4.121.048-7.108 0-.752.012-1.541.012-2.353v-1.254c0-.215-.012-.43.036-.609a1.19 1.19 0 0 1 .275-.514c.131-.143.31-.251.501-.311.191-.059.394-.047.633-.047h1.385c.944 0 1.911 0 2.902.012 3.977 0 8.336.012 12.91.012.502-.012.979.37 1.099.848.06.227.024.525.036.8v4.133c0 2.162.012 4.241.012 6.224v.74c0 .215-.06.43-.18.609-.226.371-.644.574-1.098.538-.944 0-1.851 0-2.735.012-1.768.012-3.404.012-4.908.024-2.986.024-5.41.036-7.106.048-.824.012-1.469.023-1.935.035-.203.012-.37.012-.501.012-.084.012-.144.024-.144.024s.06.012.167.012c.132 0 .299.012.502.012.466.012 1.111.012 1.935.036 1.708.012 4.12.024 7.106.048 1.504.012 3.14.012 4.908.024.884 0 1.791 0 2.735.012.489.047 1.063-.203 1.337-.669a1.46 1.46 0 0 0 .227-.765v-.74c0-1.983.012-4.074.012-6.224v-4.133c-.012-.275.036-.561-.048-.884-.143-.621-.752-1.099-1.409-1.099-4.574 0-8.945.012-12.91.012-.991 0-1.958 0-2.902.012h-1.385c-.215 0-.478-.012-.717.072a1.424 1.424 0 0 0-.609.394 1.306 1.306 0 0 0-.334.633c-.06.239-.036.466-.036.669v1.254c0 .824.012 1.601.012 2.353.024 2.987.036 5.412.048 7.108.012.406-.036.812.131 1.123.144.31.37.501.562.609.203.107.37.143.489.143.132 0 .179 0 .179-.012Z"/>
  <path fill="#542D1B" d="M240.887 207.741h19.801a.131.131 0 0 0 .131-.131v-2.15h-20.063v2.162c0 .06.06.119.131.119Z"/>
  <path fill="#fff" d="m248.949 193.526 9.231 14.227h-5.171l-9.016-14.227h4.956Z" opacity=".6"/>
  <path fill="#F5F5F5" d="M220.024 207.741h18.081a.989.989 0 0 0 .991-.991v-12.232a.99.99 0 0 0-.991-.992h-18.081a.99.99 0 0 0-.991.992v12.232c0 .549.442.991.991.991Z"/>
  <path fill="#542D1B" d="M220.024 207.741c.012-.024-.262.024-.609-.251a.983.983 0 0 1-.334-.692c0-.335.012-.705.012-1.123.012-1.72.024-4.157.048-7.167 0-.753.012-1.553.012-2.378v-1.266c.012-.215-.012-.43.035-.609a.851.851 0 0 1 .335-.454.91.91 0 0 1 .561-.155h2.078c.944 0 1.923 0 2.926.012 4.001 0 8.396.012 13.005.012.502 0 .908.454.836.991v5.017c0 2.174.012 4.277.012 6.271v.741a.936.936 0 0 1-.203.585.85.85 0 0 1-.537.287c-.203.012-.466 0-.693.012-.943 0-1.863 0-2.759.012-1.779.012-3.427.012-4.944.024-3.009.024-5.445.036-7.165.048-.824.012-1.481.024-1.947.035-.203.012-.37.012-.501.012a9.003 9.003 0 0 1-.168.036s.06.012.168.012c.131 0 .298.012.501.012.466.012 1.123.012 1.947.036 1.72.012 4.156.024 7.165.048 1.517.012 3.165.012 4.944.024.884 0 1.804 0 2.759.012.239 0 .454.012.729-.012.274-.036.537-.168.716-.383.179-.203.287-.501.275-.776v-.741c0-2.006.012-4.097.012-6.271v-5.017c.024-.275-.048-.669-.275-.908a1.186 1.186 0 0 0-.884-.406c-4.609 0-9.004.012-13.005.012-1.003 0-1.97 0-2.926.012h-2.078a1.191 1.191 0 0 0-.716.203 1.136 1.136 0 0 0-.43.597c-.072.251-.036.478-.048.681v1.266c0 .825.012 1.613.012 2.377.024 3.011.036 5.448.048 7.168.012.418.012.8.012 1.123.023.346.215.597.394.74.179.143.358.179.477.203.144.012.203-.012.203-.012Z"/>
  <path fill="#542D1B" d="M219.105 207.741h19.92c.035 0 .071-.036.071-.071v-2.21h-20.063v2.21c0 .047.024.071.072.071Z"/>
  <path fill="#fff" d="m227.213 193.526 9.232 14.227h-5.171l-9.017-14.227h4.956Z" opacity=".6"/>
  <path fill="#F5F5F5" d="M283.152 207.741h17.532c.704 0 1.266-.573 1.266-1.266v-11.682c0-.705-.574-1.267-1.266-1.267h-17.532c-.704 0-1.266.574-1.266 1.267v11.682a1.26 1.26 0 0 0 1.266 1.266Z"/>
  <path fill="#542D1B" d="M283.152 207.741c.012-.024-.25.024-.621-.203a1.272 1.272 0 0 1-.501-.597c-.132-.287-.072-.669-.084-1.087.012-1.708.024-4.133.048-7.12 0-.752.012-1.54.012-2.353v-1.254c0-.215-.012-.43.036-.609.047-.191.143-.371.286-.514.132-.143.311-.251.502-.299.191-.059.406-.035.633-.047h1.385c.944 0 1.911 0 2.902.012 3.977 0 8.336.012 12.922.012a1.1 1.1 0 0 1 1.075.86c.047.227.024.537.024.812v4.133c0 2.162.012 4.241.012 6.235v.741c0 .215-.06.43-.18.609-.238.371-.656.562-1.11.526-.944 0-1.851 0-2.735.012-1.768.012-3.404.012-4.908.024-2.986.024-5.41.036-7.118.048-.824.011-1.469.023-1.935.035-.203.012-.37.012-.501.012-.084 0-.144.012-.144.012s.06.012.168.012c.131 0 .298.012.501.012.466.012 1.111.012 1.935.036 1.708.012 4.132.024 7.117.048 1.505.012 3.153.012 4.909.024.884 0 1.791 0 2.735.012.477.047 1.074-.18 1.349-.645.143-.227.227-.502.227-.765v-.741c0-1.982.012-4.073.012-6.235v-4.133c-.012-.287.024-.55-.036-.884a1.432 1.432 0 0 0-1.397-1.111c-4.586 0-8.945.012-12.922.012-.991 0-1.958 0-2.902.012h-1.385c-.215 0-.466-.012-.717.06a1.39 1.39 0 0 0-.621.382 1.437 1.437 0 0 0-.346.633c-.06.239-.036.466-.036.669v1.254c0 .824.012 1.601.012 2.353.024 2.987.036 5.412.048 7.12.012.406-.036.8.119 1.123.132.31.359.501.562.621.203.107.37.143.489.155.12-.012.179-.012.179-.024Z"/>
  <path fill="#542D1B" d="M282.006 207.741h19.812a.132.132 0 0 0 .132-.131v-2.15h-20.064v2.162c0 .071.06.119.12.119Z"/>
  <path fill="#fff" d="m290.079 193.526 9.232 14.227h-5.183l-9.005-14.227h4.956Z" opacity=".6"/>
  <path fill="#544944" d="M398.779 190.504h6.472v25.814h-6.472v-25.814Z"/>
  <path fill="#000" d="M398.779 190.504h6.472v25.814h-6.472v-25.814Z" opacity=".2"/>
  <path fill="#542D1B" d="M106.356 176.492c0 .084 95.826.156 214.02.156 118.23 0 214.044-.072 214.044-.156 0-.083-95.814-.155-214.044-.155-118.182-.012-214.02.06-214.02.155Z"/>
  <path fill="#542D1B" d="M424.419 174.259h11.787v3.786h-11.787v-3.786Z"/>
</svg>
