<svg width="46" height="37" viewBox="0 0 46 37" fill="none" xmlns="http://www.w3.org/2000/svg">
<path d="M45.6661 4.43002C43.9985 5.18802 42.201 5.68613 40.3385 5.92436C42.2443 4.77654 43.717 2.95735 44.41 0.769998C42.6125 1.85285 40.62 2.61084 38.5193 3.04398C36.8084 1.18148 34.4045 0.0986328 31.6757 0.0986328C26.5863 0.0986328 22.4282 4.25677 22.4282 9.38947C22.4282 10.1258 22.5148 10.8405 22.6664 11.5119C14.9565 11.122 8.09127 7.41868 3.52165 1.80953C2.72034 3.17392 2.26555 4.77654 2.26555 6.46578C2.26555 9.69267 3.88982 12.5514 6.40203 14.1757C4.86438 14.1757 3.43502 13.7425 2.17892 13.0928V13.1578C2.17892 17.6624 5.38415 21.4307 9.62891 22.2754C8.2661 22.6483 6.83537 22.7002 5.44912 22.427C6.03734 24.2732 7.18934 25.8886 8.74318 27.0462C10.297 28.2038 12.1746 28.8454 14.1119 28.8807C10.8279 31.4805 6.75719 32.8858 2.56874 32.8656C1.83241 32.8656 1.09607 32.8223 0.359734 32.7357C4.47456 35.3778 9.36903 36.9155 14.61 36.9155C31.6757 36.9155 41.0532 22.7518 41.0532 10.4723C41.0532 10.0608 41.0532 9.67101 41.0315 9.25953C42.8507 7.96011 44.41 6.31418 45.6661 4.43002Z" fill="#D9D9D9"/>
</svg>
