<svg width="52" height="37" viewBox="0 0 52 37" fill="none" xmlns="http://www.w3.org/2000/svg">
<path fill-rule="evenodd" clip-rule="evenodd" d="M13.5804 0.59181C21.9856 -0.0657595 30.4294 -0.0657595 38.8347 0.59181L44.4793 1.03531C46.008 1.15449 47.453 1.78196 48.5837 2.81773C49.7145 3.85349 50.466 5.23793 50.7185 6.75042C52.0213 14.5369 52.0213 22.4821 50.7185 30.266C50.4661 31.7781 49.7149 33.1623 48.5847 34.198C47.4544 35.2337 46.0101 35.8614 44.4818 35.9811L38.8372 36.4221C30.4311 37.0799 21.9865 37.0799 13.5804 36.4221L7.93581 35.9811C6.40702 35.862 4.96212 35.2345 3.83136 34.1987C2.70061 33.163 1.94909 31.7785 1.69656 30.266C0.395966 22.4814 0.395966 14.535 1.69656 6.75042C1.94898 5.23832 2.70013 3.85417 3.83038 2.81846C4.96062 1.78274 6.40495 1.15503 7.93329 1.03531L13.5778 0.594329L13.5804 0.59181ZM21.1678 24.7324V12.2841C21.168 12.1505 21.2036 12.0194 21.2709 11.904C21.3383 11.7886 21.4351 11.6932 21.5513 11.6274C21.6676 11.5616 21.7992 11.5277 21.9328 11.5293C22.0664 11.5309 22.1971 11.5679 22.3118 11.6365L32.6862 17.8606C32.7978 17.9279 32.8902 18.0228 32.9543 18.1363C33.0185 18.2498 33.0522 18.3779 33.0522 18.5082C33.0522 18.6386 33.0185 18.7667 32.9543 18.8802C32.8902 18.9936 32.7978 19.0886 32.6862 19.1558L22.3118 25.38C22.1971 25.4485 22.0664 25.4855 21.9328 25.4871C21.7992 25.4887 21.6676 25.4549 21.5513 25.3891C21.4351 25.3233 21.3383 25.2278 21.2709 25.1125C21.2036 24.9971 21.168 24.866 21.1678 24.7324Z" fill="#D9D9D9"/>
</svg>
